<svg width="414" height="328" viewBox="0 0 414 328" fill="none" xmlns="http://www.w3.org/2000/svg">
<path d="M49.5889 48.8639C49.5889 48.8639 58.8045 24.2599 77.2358 28.1517C77.2358 28.1517 83.2636 17.3764 94.6238 18.2942C105.984 19.212 107.375 31.6022 107.375 31.6022C107.375 31.6022 120.043 24.0834 128.655 31.1875C142.623 42.7217 138.293 50.1523 134.194 49.3492L49.5889 48.8639Z" fill="#F5F5F5"/>
<path d="M272.42 91.4355C272.42 91.4355 265.44 72.7972 251.48 75.7447C251.48 75.7447 246.918 67.5816 238.323 68.2788C229.729 68.976 228.702 78.3658 228.702 78.3658C228.702 78.3658 219.114 72.6648 212.589 78.0481C202.007 86.7848 205.286 92.4151 208.391 91.8062L272.42 91.4355Z" fill="#F5F5F5"/>
<path d="M28.8475 289.133C28.8475 289.133 31.1991 265.764 48.5622 264.273C48.5622 264.273 53.257 222.275 80.9453 232.273C80.9453 232.273 82.8249 195.756 97.3728 191.758C111.921 187.76 119.406 212.161 119.406 212.161C119.406 212.161 144.42 196.417 151.11 229.202C151.11 229.202 186.623 210.026 181.655 264.926C181.655 264.926 205.799 255.448 205.319 289.133H28.8475Z" fill="#EBEBEB"/>
<path d="M382.627 288.912C382.627 288.912 375.357 271.694 358.292 274.968C358.292 274.968 360.47 239.536 347.031 234.118C333.593 228.699 315.071 237.983 315.071 237.983C315.071 237.983 312.893 221.339 304.903 220.951C296.913 220.563 292.566 237.215 292.566 237.215C292.566 237.215 273.372 191.149 247.92 202.798C222.467 214.447 220.952 268.279 220.952 268.279C220.952 268.279 210.916 246.967 202.421 254.892C193.926 262.816 193.868 289.097 193.868 289.097L382.627 288.912Z" fill="#F5F5F5"/>
<path d="M414 288.912H0V289.132H414V288.912Z" fill="#EBEBEB"/>
<path d="M196.236 249.553H36.3575C35.105 249.55 33.9046 249.018 33.0197 248.074C32.1349 247.129 31.6379 245.848 31.6379 244.514V4.97728C31.6531 3.6531 32.1568 2.38854 33.04 1.4571C33.9232 0.525658 35.115 0.00221974 36.3575 0H196.236C197.49 0 198.692 0.5309 199.579 1.47591C200.466 2.42091 200.964 3.70262 200.964 5.03906V244.514C200.964 245.85 200.466 247.132 199.579 248.077C198.692 249.022 197.49 249.553 196.236 249.553ZM36.3575 0.15885C35.1599 0.161187 34.0121 0.669876 33.1661 1.57325C32.32 2.47663 31.8449 3.70088 31.8449 4.97728V244.514C31.8449 245.79 32.32 247.014 33.1661 247.918C34.0121 248.821 35.1599 249.33 36.3575 249.332H196.236C197.434 249.33 198.583 248.821 199.43 247.918C200.278 247.015 200.755 245.791 200.757 244.514V4.97728C200.753 3.70079 200.275 2.4779 199.428 1.57527C198.581 0.672649 197.434 0.1635 196.236 0.15885H36.3575Z" fill="#EBEBEB"/>
<path d="M375.341 249.553H215.454C214.201 249.55 212.999 249.019 212.113 248.074C211.227 247.13 210.728 245.849 210.726 244.514V4.97728C210.743 3.6523 211.249 2.38774 212.133 1.45654C213.018 0.52534 214.211 0.00218705 215.454 0H375.341C376.585 0.00459295 377.777 0.531483 378.659 1.46647C379.54 2.40146 380.041 3.6692 380.052 4.99493V244.514C380.053 245.174 379.932 245.828 379.696 246.439C379.46 247.05 379.113 247.605 378.676 248.073C378.238 248.541 377.718 248.912 377.146 249.166C376.574 249.42 375.961 249.551 375.341 249.553ZM215.454 0.15885C214.256 0.1635 213.109 0.672649 212.262 1.57527C211.415 2.4779 210.937 3.70079 210.933 4.97728V244.514C210.935 245.791 211.412 247.015 212.26 247.918C213.107 248.821 214.256 249.33 215.454 249.332H375.341C376.539 249.33 377.688 248.821 378.535 247.918C379.382 247.015 379.859 245.791 379.862 244.514V4.97728C379.857 3.70079 379.38 2.4779 378.533 1.57527C377.686 0.672649 376.538 0.1635 375.341 0.15885H215.454Z" fill="#EBEBEB"/>
<path d="M165.964 297.313H144.436V297.533H165.964V297.313Z" fill="#EBEBEB"/>
<path d="M88.2317 294.922H43.4369V295.142H88.2317V294.922Z" fill="#EBEBEB"/>
<path d="M245.966 304.029H213.814V304.249H245.966V304.029Z" fill="#EBEBEB"/>
<path d="M372.526 300.305H327.35V300.525H372.526V300.305Z" fill="#EBEBEB"/>
<path d="M357.503 47.6703C367.757 43.2214 372.685 30.7553 368.511 19.8264C364.337 8.89749 352.641 3.6444 342.387 8.09327C332.133 12.5421 327.204 25.0083 331.378 35.9372C335.552 46.8661 347.249 52.1191 357.503 47.6703Z" fill="#87A2FB"/>
<path d="M56.362 69.179C56.362 69.179 65.1057 68.0582 69.3616 73.9091C69.3616 73.9091 68.4177 63.5663 71.2577 59.7892C71.2577 59.7892 67.7056 62.1013 67.2336 69.1613C65.5618 68.2047 63.6933 67.7055 61.7957 67.7086C59.8982 67.7117 58.0311 68.2169 56.362 69.179Z" fill="#E0E0E0"/>
<path d="M50.7646 87.8526C50.7646 87.8526 59.4752 89.2381 62.1165 96.0863C62.1165 96.0863 63.7725 85.8405 67.4406 83.0165C67.4406 83.0165 63.4496 84.2432 61.2471 90.959C59.8782 89.556 58.2036 88.5376 56.3738 87.9953C54.5441 87.4531 52.6166 87.4041 50.7646 87.8526Z" fill="#E0E0E0"/>
<path d="M335.853 205.331H324.137V288.682H335.853V205.331Z" fill="#E0E0E0"/>
<path d="M309.697 153.81L279.375 247.549L290.106 235.821L292.847 249.005L300.639 235.821L305.582 248.794L313.953 235.821L319.302 249.597L326.472 235.821L333.179 249.12L340.639 235.706L345.698 249.182L352.604 237.198L357.729 250.938L363.947 236.862L375.324 246.976L345.516 137.475L309.697 153.81Z" fill="#EBEBEB"/>
<path d="M329.229 75.0652L291.887 195.561L302.709 183.745L303.661 196.47L310.79 184.009L316.826 196.47L322.042 182.447L327.457 196.259L335.862 182.35L341.103 196.47L347.131 182.227L351.726 193.708L356.33 182.227L365.752 193.152L329.229 75.0652Z" fill="#F5F5F5"/>
<path d="M329.271 55.4649L308.778 125.562L315.468 119.834L318.424 125.562L321.761 121.564L327.201 127.062L332.061 121.696L338.172 127.318L340.432 122.058L343.297 126.338L346.659 121.564L350.65 124.494L329.271 55.4649Z" fill="#FAFAFA"/>
<path opacity="0.5" d="M357.503 47.6703C367.757 43.2214 372.685 30.7553 368.511 19.8264C364.337 8.89749 352.641 3.6444 342.387 8.09327C332.133 12.5421 327.204 25.0083 331.378 35.9372C335.552 46.8661 347.249 52.1191 357.503 47.6703Z" fill="white"/>
<path d="M206.346 327.901C295.01 327.901 366.887 323.428 366.887 317.911C366.887 312.393 295.01 307.921 206.346 307.921C117.682 307.921 45.8049 312.393 45.8049 317.911C45.8049 323.428 117.682 327.901 206.346 327.901Z" fill="#F5F5F5"/>
<path d="M156.426 89.1322C156.426 89.1322 160.019 115.607 167.645 123.002C167.645 123.002 179.568 123.002 189.579 117.707L197.917 116.693L196.261 106.103L186.722 112.88C186.722 112.88 175.958 114.16 170.22 114.416C170.22 114.416 163.124 91.4708 162.412 81.6045L156.426 89.1322Z" fill="#CE7A63"/>
<path d="M131.329 91.9562C130.956 99.0868 129.242 116.666 120.739 115.554C112.542 114.495 99.3931 102.44 98.4905 101.602C99.4924 99.8369 100.643 97.7101 101.803 95.7245C112.368 102.67 119.141 104.805 119.141 104.805L121.277 90.6854C121.277 90.6854 131.71 84.8345 131.329 91.9562Z" fill="#CE7A63"/>
<path d="M190.688 264.555L182.16 271.306C182.16 271.306 158.487 237.268 152.145 224.949C145.803 212.629 143.617 160.791 143.617 160.791C143.418 162.221 143.227 168.733 143.037 176.041C142.805 185.88 142.59 197.221 142.391 199.974C140.089 232.82 141.133 292.424 141.133 292.424H131.197C127.62 277.166 122.917 218.189 122.395 204.104C121.873 190.019 128.514 130.16 128.514 130.16H157.974C166.511 150.704 159.903 190.028 164.598 205.869C169.293 221.71 190.688 264.555 190.688 264.555Z" fill="#87A2FB"/>
<path d="M129.648 57.1417C129.648 57.1417 124.175 49.7817 129.955 43.9043C129.955 43.9043 130.029 37.4532 134.923 36.9237C139.816 36.3942 144.031 40.286 148.924 40.4537C154.588 40.6037 156.128 49.0845 152.17 49.614C148.212 50.1435 141.406 64.0429 137.994 64.3164C134.583 64.59 129.648 57.1417 129.648 57.1417Z" fill="#263238"/>
<path d="M189.786 282.152C189.786 282.152 187.923 279.31 186.871 280.184C185.82 281.058 189.786 282.152 189.786 282.152Z" stroke="#87A2FB" stroke-miterlimit="10"/>
<path d="M190.457 282.893C190.457 282.893 186.996 285.761 186.375 284.738C185.754 283.714 190.457 282.893 190.457 282.893Z" stroke="#87A2FB" stroke-miterlimit="10"/>
<path d="M132.008 306.941C132.008 306.941 132.14 302.485 130.501 303.05C128.862 303.614 132.008 306.941 132.008 306.941Z" stroke="#87A2FB" stroke-miterlimit="10"/>
<path d="M131.611 307.25C131.611 307.25 128.68 304.382 127.628 304.973C126.576 305.565 128.779 306.994 131.611 307.25Z" stroke="#87A2FB" stroke-miterlimit="10"/>
<path d="M196.724 275.71L190.87 280.758L186.714 274.801L185.472 273.027L188.651 269.629L190.688 267.45L191.086 267.988L193.255 270.962L196.724 275.71Z" fill="#CE7A63"/>
<path d="M140.984 295.116V306.43L133.556 305.891L133.3 297.093L133.258 295.434L140.984 295.116Z" fill="#CE7A63"/>
<path d="M133.656 73.4679L123.546 74.6593C123.687 83.6913 124.284 92.7088 125.334 101.673C126.99 114.548 128.439 130.168 128.439 130.168H157.9C157.717 134.14 158.322 109.068 159.431 97.6572L169.641 95.9363C169.641 95.9363 167.538 78.6129 162.048 77.6333C156.558 76.6537 145.372 70.7322 133.656 73.4679Z" fill="#263238"/>
<path d="M125.376 99.2457L125.152 99.0603L123.67 97.8601L114.678 90.5795C116.591 74.6946 123.513 74.6946 123.579 74.6946L124.755 90.8178L125.376 99.2457Z" fill="#263238"/>
<path d="M153.784 58.1036C152.807 65.5078 149.222 66.6638 145.314 67.9346C145.314 67.9346 145.314 68.7289 145.413 69.7702C145.587 71.447 146.026 73.7944 147.16 74.6504C147.16 74.6504 145.968 80.0955 139.013 79.6277C132.058 79.16 132.604 74.8799 132.604 74.8799C132.604 74.8799 136.628 72.1089 136.951 68.4024C137.116 65.9507 136.895 63.487 136.297 61.1129C136.297 61.1129 130.965 57.9889 132.596 54.6266C134.227 51.2643 137.564 54.856 137.564 54.856L138.11 43.2865C138.11 43.2865 148.535 41.5215 151.797 45.1397C153.665 49.1507 154.357 53.6677 153.784 58.1036Z" fill="#CE7A63"/>
<path d="M145.744 54.1501C145.744 54.7237 145.48 55.1826 145.148 55.1826C144.817 55.1826 144.544 54.7237 144.544 54.1501C144.544 53.5764 144.809 53.1087 145.148 53.1087C145.488 53.1087 145.744 53.5764 145.744 54.1501Z" fill="#263238"/>
<path d="M151.772 54.1501C151.772 54.7237 151.499 55.1826 151.168 55.1826C150.837 55.1826 150.563 54.7237 150.563 54.1501C150.563 53.5764 150.837 53.1087 151.168 53.1087C151.499 53.1087 151.772 53.5764 151.772 54.1501Z" fill="#263238"/>
<path d="M148.079 53.7176V59.1273C148.899 59.2073 149.715 58.9446 150.356 58.3949L148.079 53.7176Z" fill="#BA4D3C"/>
<path d="M142.093 59.1273C142.452 59.7732 142.963 60.3072 143.576 60.6758C144.19 61.0445 144.883 61.2348 145.587 61.2277" stroke="#263238" stroke-linecap="round" stroke-linejoin="round"/>
<path d="M142.176 50.2229C142.448 49.7479 142.862 49.3843 143.352 49.1906C143.842 48.9969 144.378 48.9844 144.875 49.1551" stroke="#263238" stroke-linecap="round" stroke-linejoin="round"/>
<path d="M150.133 48.7933C150.59 48.8273 151.029 49.0023 151.395 49.2968C151.761 49.5913 152.039 49.9927 152.195 50.4524" stroke="#263238" stroke-linecap="round" stroke-linejoin="round"/>
<path d="M138.144 43.2865C138.144 43.2865 142.151 49.1551 137.605 54.8649L136.264 49.0757L138.144 43.2865Z" fill="#263238"/>
<path opacity="0.2" d="M125.152 99.0603L123.67 97.8601L124.755 90.7825L125.152 99.0603Z" fill="black"/>
<path d="M138.144 43.2865C139.761 44.5977 141.721 45.3403 143.752 45.4114C145.783 45.4826 147.784 44.8788 149.479 43.6836C149.479 43.6836 150.721 39.8448 144.726 40.3478C138.731 40.8508 138.144 43.2865 138.144 43.2865Z" fill="#263238"/>
<path d="M131.519 38.874C131.519 38.874 135.452 33.429 144.767 35.4499C152.219 37.0737 154.223 31.9199 156.533 33.1378C158.843 34.3556 157.626 44.4073 150.779 42.8453C143.931 41.2832 131.519 38.874 131.519 38.874Z" fill="#263238"/>
<path d="M130.054 43.5424C129.667 43.0931 129.167 42.7712 128.614 42.6148C128.061 42.4584 127.477 42.4741 126.932 42.6599L130.054 43.8601L126.427 44.3455C126.427 44.3455 129.541 45.078 130.451 44.5396C131.362 44.0013 130.054 43.5424 130.054 43.5424Z" fill="#263238"/>
<path d="M101.761 95.7245C101.761 95.7245 100.817 90.6501 96.3378 89.4411L93.6219 86.0788L89.3909 89.8471L92.1564 97.9131L98.4906 101.602L101.761 95.7245Z" fill="#CE7A63"/>
<path opacity="0.1" d="M145.413 69.7702C143.688 69.5394 142.083 68.7044 140.851 67.3963C142.311 67.7806 143.811 67.9616 145.314 67.9346C145.314 67.9346 145.314 68.7289 145.413 69.7702Z" fill="black"/>
<path d="M142.772 312.995L142.151 306.597C142.126 306.316 142.004 306.056 141.808 305.866C141.611 305.677 141.356 305.572 141.091 305.573H133.026C132.827 305.574 132.631 305.635 132.463 305.75C131.387 306.465 127.181 309.209 124.879 309.907C122.213 310.701 121.236 310.948 121.236 311.945C121.236 312.942 121.476 313.931 122.387 314.231C123.157 314.487 137.489 314.31 141.729 314.231C141.875 314.229 142.02 314.195 142.153 314.131C142.287 314.066 142.407 313.973 142.505 313.857C142.603 313.741 142.677 313.604 142.723 313.456C142.769 313.308 142.786 313.151 142.772 312.995Z" fill="#263238"/>
<path d="M202.678 279.972L198.596 275.242C198.418 275.033 198.173 274.903 197.909 274.877C197.646 274.851 197.383 274.931 197.172 275.101L190.705 280.237C190.546 280.368 190.423 280.541 190.349 280.74C189.894 281.993 188.064 286.918 186.598 288.903C184.942 291.242 184.263 292.062 184.826 292.857C185.389 293.651 186.143 294.295 187.029 293.96C187.915 293.624 199.184 284.394 202.545 281.605C202.657 281.509 202.749 281.389 202.816 281.254C202.884 281.119 202.925 280.971 202.937 280.819C202.949 280.666 202.933 280.513 202.888 280.367C202.844 280.222 202.772 280.088 202.678 279.972Z" fill="#263238"/>
<path opacity="0.2" d="M193.255 270.962L186.714 274.801L185.472 273.027L188.651 269.629L191.086 267.988L193.255 270.962Z" fill="black"/>
<path opacity="0.2" d="M140.984 295.116V297.552L133.3 297.093L133.258 295.434L140.984 295.116Z" fill="black"/>
<path opacity="0.2" d="M190.688 264.555L182.16 271.306C182.16 271.306 158.487 237.268 152.145 224.949C145.803 212.629 143.617 160.791 143.617 160.791C143.418 162.221 143.227 168.733 143.037 176.041C142.805 185.88 142.59 197.221 142.391 199.974C140.089 232.82 141.133 292.424 141.133 292.424H131.197C127.62 277.166 122.917 218.189 122.395 204.104C121.873 190.019 128.514 130.16 128.514 130.16H157.974C166.511 150.704 159.903 190.028 164.598 205.869C169.293 221.71 190.688 264.555 190.688 264.555Z" fill="black"/>
<path d="M180.529 272.021L191.781 263.408L193.793 269.206L183.452 274.871L180.529 272.021Z" fill="#263238"/>
<path d="M129.657 292.424L130.642 296.007L141.994 296.475L142.648 291.595L129.657 292.424Z" fill="#263238"/>
<path d="M196.253 106.094C196.311 106.482 203.365 109.28 203.365 109.28L202.877 114.53L197.909 116.684L196.253 106.094Z" fill="#CE7A63"/>
<path opacity="0.2" d="M143.517 161.956C143.294 163.536 143.087 170.675 142.88 178.723C142.358 169.289 142.573 152.09 142.573 152.09L143.517 161.956Z" fill="black"/>
<path d="M289.601 296.607L277.736 297.958C277.736 297.958 258.692 232.132 254.13 215.885C249.568 199.639 247.266 165.027 247.266 165.027C246.81 166.421 246.107 169.051 245.196 172.616C237.702 202.18 216.746 296.581 216.746 296.581L207.215 292.61C207.215 292.61 212.929 219.909 215.595 206.125C218.261 192.34 235.657 126.815 235.657 126.815H267.121C267.121 126.815 270.168 197.176 272.834 213.158C275.5 229.14 289.601 296.607 289.601 296.607Z" fill="#263238"/>
<path d="M231.534 86.8554C231.534 86.8554 228.52 99.5457 223.916 109.58C219.114 120.046 212.664 127.936 209.774 131.642L204.334 136.055L202.38 142.55L209.559 145.1C209.559 145.1 215.429 139.073 214.998 135.393L230.01 116.031L238.216 92.6622L231.534 86.8554Z" fill="#FFB573"/>
<path d="M259.429 39.5447C262.004 41.0714 263.229 43.0747 265.225 45.4221C269.232 50.2552 273.957 54.3544 279.21 57.5565C282.969 59.7715 287.018 61.36 290.868 63.3809C292.657 64.1833 294.229 65.4517 295.439 67.0698C296.214 68.4138 296.713 69.9176 296.904 71.4823C298.254 79.7071 296.076 88.7439 290.429 94.5507C288.631 96.4571 286.451 97.9052 284.054 98.7867C279.392 100.411 274.341 99.3162 269.473 98.619C266.345 98.2916 263.238 97.776 260.166 97.0747C257.078 96.3652 254.23 94.7727 251.927 92.468C249.759 90.0053 248.364 86.8837 247.936 83.5372C247.522 80.205 247.656 76.8213 248.334 73.5385C248.938 70.2644 249.882 67.0433 250.172 63.7075C250.462 60.3716 250.039 56.824 248.176 54.1324C247.15 52.6498 243.97 51.4849 243.208 49.8258C241.552 46.234 244.31 41.5568 247.597 39.58C249.417 38.5475 251.447 38.0046 253.509 37.9984C255.571 37.9923 257.603 38.5231 259.429 39.5447Z" fill="#263238"/>
<path d="M278.895 87.4466L268.612 95.142L267.013 128.677C257.127 130.671 235.657 126.78 235.657 126.78L233.173 93.2446L231.708 92.0974L228.238 89.397C228.238 89.397 231.451 79.8307 233.314 77.695C235.177 75.5594 245.734 73.7415 245.734 73.7415C245.734 73.7415 265.606 75.8153 270.036 77.3862C274.465 78.957 278.895 87.4466 278.895 87.4466Z" fill="#87A2FB"/>
<path d="M275.509 90.0147L282.58 103.782C282.58 103.782 288.376 95.9539 291.348 91.7973L289.767 86.1052L292.499 79.2129L297.235 79.6806C298.265 81.8873 298.624 84.3814 298.262 86.8157C297.9 89.25 296.835 91.5034 295.215 93.2623C295.215 93.2623 290.868 106.42 282.936 111.345C276.9 115.095 270.11 94.0565 270.11 94.0565L275.509 90.0147Z" fill="#FFB573"/>
<path d="M257.359 60.707C255.984 64.8812 254.113 72.6383 256.531 75.9477C256.531 75.9477 254.875 80.1396 247.34 78.9747C239.06 77.695 244.028 73.9974 244.028 73.9974C248.682 73.5561 249.054 69.982 248.731 66.5138L257.359 60.707Z" fill="#FFB573"/>
<path opacity="0.2" d="M253.832 63.0809L248.706 66.4785C248.799 67.2865 248.821 68.1019 248.773 68.9142C250.528 68.9142 253.161 67.2639 253.608 65.3842C253.815 64.6377 253.891 63.8568 253.832 63.0809Z" fill="black"/>
<path d="M259.992 50.1523C259.851 57.4152 259.926 60.4863 256.622 64.3517C251.654 70.1585 243.374 68.3759 241.437 61.2012C239.781 54.7501 240.277 43.9483 246.835 40.789C249.077 39.6966 251.635 39.598 253.945 40.5148C256.256 41.4316 258.13 43.2888 259.156 45.678C259.764 47.0775 260.051 48.6112 259.992 50.1523Z" fill="#FFB573"/>
<path d="M244.699 42.2628C244.641 42.404 252.755 55.2267 259.942 55.3943C261.739 53.2587 262.062 45.6869 259.603 43.7366C257.144 41.7862 254.983 37.8062 252.25 38.0974C248.152 38.5298 244.699 42.2628 244.699 42.2628Z" fill="#263238"/>
<path d="M249.211 52.5439C249.211 53.1352 248.955 53.6293 248.599 53.647C248.243 53.6646 247.92 53.1881 247.887 52.6321C247.853 52.0762 248.143 51.5467 248.499 51.529C248.855 51.5114 249.203 51.9614 249.211 52.5439Z" fill="#263238"/>
<path d="M242.96 52.8086C242.96 53.3999 242.703 53.8853 242.347 53.8941C241.991 53.9029 241.668 53.444 241.635 52.8792C241.602 52.3144 241.892 51.8026 242.256 51.7849C242.621 51.7673 242.943 52.2173 242.96 52.8086Z" fill="#263238"/>
<path d="M242.43 51.7849L241.081 51.4319C241.081 51.4319 241.809 52.5086 242.43 51.7849Z" fill="#263238"/>
<path d="M244.931 53.8323C244.482 55.1968 243.864 56.491 243.093 57.68C243.383 57.8808 243.712 58.0123 244.055 58.0656C244.397 58.1189 244.747 58.0927 245.08 57.9889L244.931 53.8323Z" fill="#ED893E"/>
<path d="M248.176 60.1334C247.903 60.1879 247.626 60.2204 247.348 60.2304C247.307 60.2307 247.267 60.2145 247.237 60.1851C247.206 60.1558 247.187 60.1153 247.183 60.0716C247.183 60.0253 247.199 59.9807 247.228 59.9464C247.257 59.9121 247.297 59.8907 247.34 59.8863C248.03 59.8762 248.708 59.6917 249.319 59.3481C249.929 59.0045 250.454 58.5114 250.851 57.9095C250.875 57.8717 250.911 57.845 250.953 57.8352C250.994 57.8253 251.038 57.8329 251.074 57.8565C251.093 57.8673 251.108 57.8821 251.121 57.8998C251.133 57.9176 251.142 57.9379 251.147 57.9595C251.152 57.9811 251.152 58.0035 251.148 58.0253C251.144 58.0471 251.136 58.0678 251.124 58.086C250.788 58.6213 250.353 59.0786 249.846 59.4304C249.34 59.7822 248.772 60.0213 248.176 60.1334Z" fill="#263238"/>
<path d="M262.079 56.7445C261.874 57.4053 261.55 58.0166 261.123 58.5435C260.697 59.0705 260.178 59.5028 259.595 59.8156C258.021 60.6364 256.912 59.2244 257.111 57.477C257.26 55.8973 258.261 53.5587 259.959 53.4705C260.331 53.4555 260.702 53.5404 261.035 53.7174C261.369 53.8945 261.656 54.158 261.869 54.4838C262.083 54.8097 262.216 55.1874 262.257 55.5824C262.298 55.9774 262.245 56.377 262.103 56.7445H262.079Z" fill="#FFB573"/>
<path d="M251.687 51.0877C251.618 51.1 251.547 51.0897 251.483 51.0582C251.42 51.0267 251.367 50.9755 251.331 50.9113C250.602 49.5081 248.681 49.2786 248.657 49.2698C248.572 49.2566 248.495 49.2088 248.442 49.1363C248.39 49.0639 248.366 48.9725 248.375 48.8815C248.379 48.8362 248.392 48.7923 248.412 48.7522C248.432 48.7121 248.46 48.6766 248.493 48.6479C248.526 48.6192 248.564 48.5977 248.605 48.5848C248.646 48.5719 248.689 48.5678 248.731 48.5726C248.822 48.5726 251.016 48.855 251.902 50.5759C251.945 50.6544 251.956 50.7476 251.935 50.8351C251.913 50.9227 251.86 50.9976 251.786 51.0436L251.687 51.0877Z" fill="#263238"/>
<path d="M240.973 49.7993C240.917 49.8127 240.858 49.809 240.804 49.7887C240.75 49.7685 240.702 49.7324 240.667 49.6846C240.616 49.6153 240.592 49.5274 240.601 49.4398C240.611 49.3523 240.652 49.2722 240.716 49.2168C241.091 48.8339 241.548 48.5535 242.047 48.3998C242.546 48.2461 243.072 48.2237 243.581 48.3343C243.662 48.3591 243.73 48.4162 243.771 48.4936C243.813 48.571 243.825 48.6626 243.805 48.7491C243.794 48.7933 243.775 48.8349 243.75 48.8713C243.724 48.9077 243.691 48.9383 243.654 48.9613C243.617 48.9843 243.577 48.9992 243.534 49.0052C243.492 49.0112 243.449 49.0082 243.407 48.9962C243.006 48.9069 242.591 48.9246 242.198 49.0478C241.805 49.1709 241.447 49.3958 241.155 49.7022C241.105 49.7542 241.042 49.7881 240.973 49.7993Z" fill="#263238"/>
<path d="M248.69 51.529L247.34 51.176C247.34 51.176 248.069 52.2527 248.69 51.529Z" fill="#263238"/>
<path d="M215.595 295.248L215.454 295.99L214.734 299.767L213.318 307.118L207 304.797L208.383 297.375L209.103 293.492L211.761 294.207L211.786 294.216L215.595 295.248Z" fill="#FFB573"/>
<path d="M289.005 307.974L282.638 309.086L281.354 301.911L280.767 298.628H287.548L287.631 299.158L288.053 301.911L289.005 307.974Z" fill="#FFB573"/>
<path opacity="0.2" d="M247.266 154.825V165.027C246.81 166.421 246.106 169.051 245.196 172.616L247.266 154.825Z" fill="black"/>
<path d="M291.878 314.116L290.446 307.992C290.381 307.724 290.226 307.492 290.011 307.339C289.795 307.186 289.535 307.123 289.278 307.162L281.462 308.345C281.266 308.374 281.082 308.463 280.932 308.6C279.98 309.483 276.262 312.739 274.109 313.745C271.625 314.91 270.715 315.299 270.847 316.269C270.98 317.24 271.344 318.158 272.255 318.317C273.041 318.449 286.919 316.163 291.025 315.475C291.168 315.451 291.304 315.396 291.426 315.314C291.547 315.231 291.651 315.122 291.731 314.995C291.811 314.867 291.866 314.723 291.891 314.572C291.916 314.421 291.912 314.265 291.878 314.116Z" fill="#263238"/>
<path d="M214.493 313.286L215.321 307.047C215.352 306.768 215.284 306.487 215.131 306.259C214.978 306.031 214.751 305.871 214.493 305.812L206.81 303.853C206.621 303.791 206.419 303.791 206.23 303.853C205.054 304.267 200.434 305.865 198.116 305.962C195.408 306.068 194.423 306.068 194.207 307.012C193.992 307.956 194.017 308.971 194.812 309.474C195.607 309.977 209.186 313.234 213.235 314.204C213.374 314.239 213.519 314.242 213.66 314.214C213.801 314.186 213.935 314.126 214.053 314.04C214.172 313.954 214.272 313.842 214.348 313.713C214.423 313.583 214.473 313.438 214.493 313.286Z" fill="#263238"/>
<path opacity="0.2" d="M288.053 301.911H281.354L280.767 298.628H283.764L287.631 299.158L288.053 301.911Z" fill="black"/>
<path d="M276.378 295.954H291.092V300.402L277.107 299.846L276.378 295.954Z" fill="#87A2FB"/>
<path opacity="0.2" d="M215.454 295.99L214.734 299.767L208.383 297.375L209.103 293.492L211.761 294.207L211.786 294.216L215.454 295.99Z" fill="black"/>
<path d="M218.137 299.723L219.478 295.901L206.263 290.571L206.056 294.798L218.137 299.723Z" fill="#87A2FB"/>
<path d="M267.841 124.918L267.013 128.703C265.009 129.055 262.984 129.261 260.952 129.321H260.124C258.377 129.374 256.316 129.374 253.956 129.268H253.128C250.942 129.145 248.516 128.933 245.866 128.589L245.038 128.483C243.473 128.271 241.842 128.015 240.128 127.706L239.3 127.556C238.116 127.327 236.899 127.08 235.649 126.806L235.376 123.029L239.466 123.267H240.294L245.22 123.558L246.048 123.603L253.31 124.026L254.138 124.079L260.298 124.432L261.126 124.485L267.841 124.918Z" fill="white"/>
<path d="M240.294 123.311L240.12 127.724L239.292 127.574L239.458 123.285L240.294 123.311Z" fill="#87A2FB"/>
<path d="M246.09 123.647L245.891 128.589L245.063 128.483L245.254 123.603L246.09 123.647Z" fill="#87A2FB"/>
<path d="M254.146 124.123L253.948 129.303H253.12L253.318 124.106L254.146 124.123Z" fill="#87A2FB"/>
<path d="M261.135 124.529L260.953 129.321H260.125L260.315 124.441L261.135 124.529Z" fill="#87A2FB"/>
</svg>
