<svg width="414" height="329" viewBox="0 0 414 329" fill="none" xmlns="http://www.w3.org/2000/svg">
<path d="M414 289.035H0V289.255H414V289.035Z" fill="#E6E6E6"/>
<path d="M103.351 302.352H75.9276V302.572H103.351V302.352Z" fill="#E6E6E6"/>
<path d="M67.2502 302.352H51.3608V302.572H67.2502V302.352Z" fill="#E6E6E6"/>
<path d="M174.335 305.591H158.446V305.811H174.335V305.591Z" fill="#E6E6E6"/>
<path d="M257.185 310.502H221.424V310.722H257.185V310.502Z" fill="#E6E6E6"/>
<path d="M214.055 310.502H208.813V310.722H214.055V310.502Z" fill="#E6E6E6"/>
<path d="M375.374 305.591H297.807V305.811H375.374V305.591Z" fill="#E6E6E6"/>
<path d="M196.236 249.782H36.3574C35.1049 249.779 33.9045 249.249 33.0197 248.307C32.1348 247.364 31.6378 246.087 31.6378 244.756V5.86275C31.6487 4.53906 32.1505 3.2734 33.0342 2.34067C33.9179 1.40795 35.1121 0.883493 36.3574 0.881226H196.236C197.49 0.881226 198.692 1.4107 199.579 2.35317C200.466 3.29564 200.964 4.5739 200.964 5.90676V244.756C200.964 246.089 200.466 247.367 199.579 248.31C198.692 249.252 197.49 249.782 196.236 249.782ZM36.3574 1.05725C35.1598 1.05958 34.0121 1.5669 33.166 2.46786C32.32 3.36881 31.8448 4.58978 31.8448 5.86275V244.756C31.8448 246.029 32.32 247.25 33.166 248.151C34.0121 249.052 35.1598 249.559 36.3574 249.562H196.236C197.434 249.559 198.583 249.052 199.43 248.151C200.278 247.251 200.755 246.03 200.757 244.756V5.86275C200.755 4.58897 200.278 3.36802 199.43 2.46732C198.583 1.56662 197.434 1.05958 196.236 1.05725H36.3574Z" fill="#E6E6E6"/>
<path d="M375.341 249.782H215.454C214.201 249.779 212.999 249.249 212.113 248.307C211.227 247.365 210.728 246.088 210.726 244.756V5.86275C210.739 4.53826 211.243 3.2726 212.128 2.34012C213.013 1.40764 214.208 0.883468 215.454 0.881226H375.341C376.585 0.885806 377.777 1.41128 378.659 2.34376C379.54 3.27624 380.041 4.54058 380.052 5.86275V244.756C380.052 246.086 379.556 247.361 378.673 248.303C377.79 249.245 376.592 249.777 375.341 249.782ZM215.454 1.05725C214.256 1.05958 213.107 1.56662 212.26 2.46732C211.412 3.36802 210.935 4.58897 210.933 5.86275V244.756C210.935 246.03 211.412 247.251 212.26 248.151C213.107 249.052 214.256 249.559 215.454 249.562H375.341C376.539 249.559 377.688 249.052 378.535 248.151C379.382 247.251 379.859 246.03 379.862 244.756V5.86275C379.859 4.58897 379.382 3.36802 378.535 2.46732C377.688 1.56662 376.539 1.05958 375.341 1.05725H215.454Z" fill="#E6E6E6"/>
<path d="M221.407 213.855H203.199V290.628H221.407V213.855Z" fill="#E0E0E0"/>
<path d="M217.946 290.628H221.407V280.172H214.32L217.946 290.628Z" fill="#FAFAFA"/>
<path d="M141.621 213.855H123.413V290.628H141.621V213.855Z" fill="#E0E0E0"/>
<path d="M221.407 213.855H138.607V284.212H221.407V213.855Z" fill="#FAFAFA"/>
<path d="M218.402 217.314V235.928H141.588V217.314H218.377M218.7 216.97H141.29V236.263H218.724V216.97H218.7Z" fill="#E0E0E0"/>
<path d="M142.06 290.628H138.607V280.172H145.687L142.06 290.628Z" fill="#FAFAFA"/>
<path d="M178.177 226.617C178.177 227.001 178.285 227.378 178.486 227.697C178.687 228.017 178.973 228.267 179.307 228.414C179.641 228.561 180.009 228.599 180.364 228.524C180.719 228.449 181.045 228.264 181.301 227.992C181.557 227.72 181.731 227.374 181.802 226.996C181.873 226.619 181.836 226.228 181.698 225.872C181.559 225.517 181.325 225.213 181.024 224.999C180.723 224.786 180.369 224.672 180.007 224.672C179.522 224.672 179.056 224.877 178.713 225.241C178.37 225.606 178.177 226.101 178.177 226.617Z" fill="#E6E6E6"/>
<path d="M218.402 239.722V258.336H141.588V239.722H218.377M218.7 239.387H141.29V258.68H218.724V239.396L218.7 239.387Z" fill="#E0E0E0"/>
<path d="M178.177 249.078C178.177 249.462 178.285 249.838 178.486 250.158C178.687 250.478 178.973 250.727 179.307 250.875C179.641 251.022 180.009 251.06 180.364 250.985C180.719 250.91 181.045 250.725 181.301 250.453C181.557 250.181 181.731 249.834 181.802 249.457C181.873 249.08 181.836 248.689 181.698 248.333C181.559 247.978 181.325 247.674 181.024 247.46C180.723 247.247 180.369 247.132 180.007 247.132C179.522 247.132 179.056 247.337 178.713 247.702C178.37 248.067 178.177 248.562 178.177 249.078Z" fill="#E6E6E6"/>
<path d="M218.402 262.138V280.762H141.588V262.138H218.377M218.7 261.795H141.29V281.096H218.724V261.795H218.7Z" fill="#E0E0E0"/>
<path d="M178.177 271.45C178.179 271.835 178.288 272.21 178.49 272.529C178.692 272.847 178.978 273.095 179.313 273.241C179.647 273.387 180.015 273.424 180.369 273.348C180.724 273.272 181.049 273.086 181.304 272.814C181.559 272.542 181.733 272.195 181.803 271.818C181.873 271.441 181.836 271.05 181.697 270.695C181.558 270.34 181.324 270.037 181.023 269.824C180.722 269.61 180.369 269.497 180.007 269.497C179.766 269.497 179.528 269.547 179.305 269.645C179.083 269.744 178.88 269.888 178.71 270.069C178.54 270.251 178.406 270.466 178.314 270.703C178.223 270.94 178.176 271.194 178.177 271.45Z" fill="#E6E6E6"/>
<path d="M130.501 169.267H112.293V290.637H130.501V169.267Z" fill="#E0E0E0"/>
<path d="M127.04 290.628H130.501V280.172H123.422L127.04 290.628Z" fill="#FAFAFA"/>
<path d="M62.456 169.267H44.2483V290.637H62.456V169.267Z" fill="#E0E0E0"/>
<path d="M130.501 169.267H59.4338V284.221H130.501V169.267Z" fill="#FAFAFA"/>
<path d="M127.438 172.506V198.532H62.4975V172.506H127.438ZM127.818 172.11H62.1V198.91H127.802V172.119L127.818 172.11Z" fill="#E0E0E0"/>
<path d="M127.438 201.709V270.738H96.5035V201.709H127.438ZM127.818 201.304H96.1309V271.142H127.818V201.304Z" fill="#E0E0E0"/>
<path d="M93.4316 201.709V270.738H62.4975V201.709H93.4316ZM93.8042 201.304H62.1V271.142H93.7876V201.304H93.8042Z" fill="#E0E0E0"/>
<path d="M62.8949 290.628H59.4338V280.172H66.5215L62.8949 290.628Z" fill="#FAFAFA"/>
<path d="M93.1334 185.532C93.1318 185.919 93.2382 186.298 93.4392 186.62C93.6402 186.942 93.9267 187.194 94.2624 187.344C94.5981 187.493 94.968 187.533 95.3251 187.458C95.6822 187.384 96.0105 187.199 96.2684 186.926C96.5263 186.653 96.7022 186.305 96.7738 185.925C96.8454 185.546 96.8095 185.153 96.6706 184.795C96.5317 184.438 96.2961 184.132 95.9937 183.917C95.6912 183.702 95.3355 183.587 94.9716 183.587C94.4855 183.587 94.0192 183.792 93.6747 184.156C93.3303 184.521 93.1356 185.015 93.1334 185.532Z" fill="#E6E6E6"/>
<path d="M99.6912 234.582C99.6912 234.969 99.7993 235.347 100.002 235.668C100.204 235.99 100.492 236.24 100.828 236.388C101.164 236.535 101.534 236.573 101.891 236.497C102.248 236.421 102.575 236.234 102.832 235.96C103.089 235.686 103.263 235.337 103.333 234.957C103.403 234.578 103.366 234.185 103.225 233.828C103.085 233.471 102.848 233.166 102.545 232.953C102.241 232.739 101.885 232.626 101.521 232.628C101.28 232.628 101.041 232.678 100.819 232.777C100.596 232.875 100.394 233.019 100.224 233.201C100.054 233.382 99.9196 233.598 99.8281 233.835C99.7367 234.072 99.6902 234.326 99.6912 234.582Z" fill="#E6E6E6"/>
<path d="M86.5839 234.582C86.5856 234.966 86.6943 235.341 86.8963 235.66C87.0984 235.979 87.3848 236.227 87.7193 236.372C88.0538 236.518 88.4214 236.556 88.7759 236.48C89.1303 236.403 89.4556 236.218 89.7106 235.945C89.9657 235.673 90.1392 235.326 90.2091 234.949C90.2791 234.572 90.2423 234.181 90.1036 233.827C89.9649 233.472 89.7303 233.168 89.4296 232.955C89.1288 232.742 88.7754 232.628 88.4138 232.628C88.1728 232.628 87.9342 232.678 87.7116 232.777C87.4891 232.875 87.287 233.019 87.117 233.201C86.9469 233.382 86.8123 233.598 86.7208 233.835C86.6294 234.072 86.5829 234.326 86.5839 234.582Z" fill="#E6E6E6"/>
<path d="M84.514 135.427H76.8384C77.5457 139.384 77.9912 143.39 78.1715 147.414C78.1715 151.815 72.3258 169.267 80.6555 169.267C88.9852 169.267 83.1395 151.859 83.1395 147.414C83.3334 143.389 83.7927 139.383 84.514 135.427Z" fill="#E0E0E0"/>
<path d="M55.3104 153.275V158.556C55.3191 161.387 56.3809 164.099 58.2641 166.101C60.1474 168.103 62.699 169.232 65.3623 169.241H70.3303C72.9935 169.232 75.5452 168.103 77.4284 166.101C79.3116 164.099 80.3735 161.387 80.3822 158.556V153.275H55.3104Z" fill="#F5F5F5"/>
<path d="M162.015 202.659C162.015 208.82 168.498 213.855 176.422 213.855H183.576C191.5 213.855 197.983 208.82 197.983 202.659H162.015Z" fill="#E0E0E0"/>
<path d="M351.577 193.629C347.238 197.396 341.244 204.288 335.762 213.987C332.103 220.447 329.9 227.189 328.931 236.148C328.931 226.027 328.989 215.157 329.022 204.895C330.124 202.255 332.641 196.164 334.446 191.359C340.465 175.314 342.726 171.362 348.133 157.526C355.361 139.044 362.763 117.164 360.644 118.915C356.322 122.48 339.762 155.441 337.973 160.158C333.098 172.748 330.084 186.063 329.039 199.632C329.039 189.95 329.105 181.149 329.138 174.319C329.254 152.043 329.61 144.853 329.784 142.635C330.455 141.508 331.241 140.197 331.705 139.493C335.597 133.508 337.095 128.421 340.755 119.496C345.955 106.866 350.426 84.4318 349.118 85.5583C343.67 90.2758 339.381 100.397 333.734 113.309C328.087 126.22 329.701 133.64 328.584 144.659C328.352 146.824 328.17 154.992 328.037 166.301C326.58 154.244 323.831 146.305 318.821 139.088C312.661 130.207 306.699 124.214 302.328 121.08C297.956 117.947 309.879 139.757 315.576 149.244C320.651 157.729 325.329 165.201 327.996 172.568C327.855 187.908 327.789 207.324 327.789 225.376C326.48 217.155 324.344 208.292 321.496 201.436C318.068 193.198 312.802 180.559 308.604 176.273C307.602 175.243 312.992 199.825 316.453 206.356C319.914 212.886 322.456 219.056 324.634 222.762C325.139 223.642 326.828 226.96 327.789 228.878C327.789 250.943 327.905 270.412 328.087 277.039H328.981C328.923 275.332 328.906 264.101 328.931 249.245C331.092 241.183 336.027 231.976 340.101 223.58C344.539 214.488 355.916 189.889 351.577 193.629Z" fill="#E0E0E0"/>
<path d="M341.5 290.628H315.551L313.588 263.591H343.463L341.5 290.628Z" fill="#F0F0F0"/>
<path d="M345.392 266.742H311.651L310.69 257.615H346.361L345.392 266.742Z" fill="#F5F5F5"/>
<path d="M102.887 18.924H56.4779V73.0959H102.887V18.924Z" fill="#E0E0E0"/>
<path d="M107.913 18.924H59.972V73.0959H107.913V18.924Z" fill="#F5F5F5"/>
<path d="M103.897 68.8272V23.1925L63.9879 23.1925V68.8272H103.897Z" fill="white"/>
<path d="M94.2181 57.7551V34.2468H73.6589V57.7551H94.2181Z" fill="#F5F5F5"/>
<path d="M339.521 25.2345H296.407V75.5603H339.521V25.2345Z" fill="#E0E0E0"/>
<path d="M344.191 25.2345H299.661V75.5603H344.191V25.2345Z" fill="#F5F5F5"/>
<path d="M340.465 71.5909V29.2039L303.396 29.2039V71.5909H340.465Z" fill="white"/>
<path d="M321.926 62.6926C328.315 62.6926 333.494 57.1878 333.494 50.3972C333.494 43.6066 328.315 38.1018 321.926 38.1018C315.538 38.1018 310.359 43.6066 310.359 50.3972C310.359 57.1878 315.538 62.6926 321.926 62.6926Z" fill="#F5F5F5"/>
<path d="M151.102 51.2246H116.673V91.4113H151.102V51.2246Z" fill="#E0E0E0"/>
<path d="M154.828 51.2246H119.265V91.4113H154.828V51.2246Z" fill="#F5F5F5"/>
<path d="M151.847 88.2428V54.3931H122.246V88.2428H151.847Z" fill="white"/>
<path d="M137.051 62.7542L128.953 77.6635H145.148L137.051 62.7542Z" fill="#F5F5F5"/>
<path d="M207 328.782C295.664 328.782 367.541 324.321 367.541 318.819C367.541 313.316 295.664 308.856 207 308.856C118.336 308.856 46.4591 313.316 46.4591 318.819C46.4591 324.321 118.336 328.782 207 328.782Z" fill="#F5F5F5"/>
<path d="M289.179 96.3134L280.965 92.7928C280.965 92.7928 270.127 113.802 267.022 114.866C262.799 116.31 254.055 120.323 248.872 121.027C248.168 121.908 247.017 124.645 247.125 125.639C254.088 128.112 269.39 124.83 272.669 122.242C280.129 116.371 289.179 96.3134 289.179 96.3134Z" fill="#E58A7B"/>
<path d="M291.704 91.5344C293.236 97.5457 284.94 109.639 284.94 109.639L274.068 103.161C274.068 103.161 276.105 98.1882 278.589 93.1275C282.572 84.9511 289.957 84.6782 291.704 91.5344Z" fill="#87A2FB"/>
<path opacity="0.2" d="M291.704 91.5344C293.236 97.5457 284.94 109.639 284.94 109.639L274.068 103.161C274.068 103.161 276.105 98.1882 278.589 93.1275C282.572 84.9511 289.957 84.6782 291.704 91.5344Z" fill="black"/>
<path opacity="0.2" d="M278.382 105.749L282.663 108.301L283.416 94.3333C280.924 96.3663 279.168 102.492 278.382 105.749Z" fill="black"/>
<path d="M284.551 87.0106C284.551 87.0106 276.088 107.025 281.023 144.289H314.367C314.897 138.85 313.141 112.305 319.492 86.6761C315.834 85.9163 312.133 85.4135 308.413 85.1711C303.695 84.8805 298.965 84.8805 294.246 85.1711C290.975 85.5242 287.734 86.139 284.551 87.0106Z" fill="#87A2FB"/>
<path opacity="0.2" d="M284.551 87.0106C284.551 87.0106 276.088 107.025 281.023 144.289H314.367C314.897 138.85 313.141 112.305 319.492 86.6761C315.834 85.9163 312.133 85.4135 308.413 85.1711C303.695 84.8805 298.965 84.8805 294.246 85.1711C290.975 85.5242 287.734 86.139 284.551 87.0106Z" fill="black"/>
<g style="mix-blend-mode:multiply">
<path d="M276.817 319.611C276.767 320.561 289.411 321.327 305.052 321.327C320.693 321.327 333.427 320.561 333.477 319.611C333.527 318.66 320.891 317.903 305.242 317.903C289.593 317.903 276.875 318.669 276.817 319.611Z" fill="#E8ECF1"/>
</g>
<path d="M299.074 294.635L293.16 297.069L298.254 311.057L304.168 308.624L299.074 294.635Z" fill="#E58A7B"/>
<path d="M325.445 312.843H319.211L316.925 297.502H323.16L325.445 312.843Z" fill="#E58A7B"/>
<path d="M318.78 312.077H325.785C325.906 312.077 326.024 312.124 326.116 312.207C326.209 312.291 326.27 312.407 326.29 312.535L327.192 318.423C327.211 318.57 327.2 318.721 327.16 318.863C327.119 319.006 327.05 319.138 326.958 319.25C326.865 319.362 326.751 319.451 326.623 319.512C326.495 319.573 326.356 319.603 326.215 319.602C323.773 319.558 322.597 319.4 319.517 319.4C317.621 319.4 313.721 319.611 311.088 319.611C308.455 319.611 308.281 316.865 309.366 316.61C314.234 315.492 316.122 313.969 317.745 312.491C318.031 312.223 318.399 312.076 318.78 312.077Z" fill="#263238"/>
<path d="M298.08 309.806L304.704 307.747C304.822 307.711 304.948 307.72 305.061 307.771C305.174 307.822 305.267 307.913 305.325 308.028L307.809 313.309C307.867 313.443 307.896 313.589 307.895 313.736C307.895 313.884 307.864 314.029 307.804 314.162C307.745 314.296 307.66 314.413 307.553 314.508C307.447 314.602 307.322 314.671 307.188 314.709C304.779 315.413 303.164 315.844 300.15 316.777C298.072 317.419 295.952 318.467 293.899 319.162C292.474 319.646 289.129 319.664 287.399 319.664C284.84 319.664 284.269 316.795 285.37 316.663C288.144 316.337 288.517 316.486 290.048 315.668C292.555 314.503 294.826 312.836 296.739 310.757C297.099 310.32 297.562 309.992 298.08 309.806Z" fill="#263238"/>
<path d="M249.915 120.992L243.059 117.938L240.236 126.018C243.046 126.473 245.905 126.473 248.715 126.018L249.915 120.992Z" fill="#E58A7B"/>
<path d="M237.959 117.727L237.777 123.096L240.236 126L243.059 117.921L237.959 117.727Z" fill="#E58A7B"/>
<path d="M299.885 295.823L293.953 298.258L296.58 305.491L302.513 303.057L299.885 295.823Z" fill="#CF6F64"/>
<path d="M323.16 297.502H316.925L318.109 305.415H324.344L323.16 297.502Z" fill="#CF6F64"/>
<path opacity="0.2" d="M279.963 134.212C280.088 135.805 280.228 137.433 280.411 139.105L305.201 130.55C309.072 129.331 312.437 126.745 314.739 123.219C314.839 120.869 314.963 118.396 315.153 115.817C315.236 114.567 315.336 113.282 315.443 111.98C315.551 110.677 315.7 109.234 315.857 107.843L279.963 134.212Z" fill="black"/>
<path d="M288.061 105.344L287.233 105.238C287.722 100.837 290.81 97.3696 294.064 97.4576V98.3377C291.216 98.2761 288.5 101.401 288.061 105.344Z" fill="white"/>
<path d="M292.474 113.467H292.334V112.587C295.182 112.702 297.856 109.542 298.295 105.608L299.123 105.713C298.684 110.017 295.695 113.467 292.474 113.467Z" fill="white"/>
<path d="M307.95 68.2111C306.782 73.0606 305.408 81.9411 308.413 85.1711C308.413 85.1711 306.31 90.0911 297.84 90.0911C290.098 90.0911 294.246 85.1711 294.246 85.1711C299.397 83.8862 299.488 79.8904 298.809 76.1058L307.95 68.2111Z" fill="#E58A7B"/>
<path d="M304.224 71.4324L298.817 76.1059C298.984 76.9755 299.081 77.8589 299.107 78.7462C300.688 80.4185 303.859 76.1851 304.182 74.02C304.346 73.1676 304.36 72.2902 304.224 71.4324Z" fill="#CF6F64"/>
<path d="M289.519 68.1495C289.895 68.8426 290.401 69.4458 291.007 69.9213C291.612 70.3969 292.304 70.7345 293.038 70.9131C295.025 71.3796 296.018 69.4345 295.472 67.4806C294.983 65.7204 293.352 63.3528 291.332 63.7577C290.899 63.8524 290.494 64.056 290.15 64.3514C289.807 64.6468 289.535 65.0254 289.357 65.4555C289.18 65.8855 289.102 66.3546 289.13 66.8233C289.158 67.292 289.291 67.7468 289.519 68.1495Z" fill="#CF6F64"/>
<path d="M292.806 52.6328C289.709 54.1378 288.616 67.2165 292.508 69.1528C296.399 71.0891 298.668 49.7723 292.806 52.6328Z" fill="#263238"/>
<path d="M308.894 60.9148C308.148 67.4806 308.066 71.3443 304.754 74.7064C303.727 75.8221 302.431 76.6147 301.008 76.9965C299.584 77.3784 298.089 77.3347 296.688 76.8703C295.286 76.4059 294.033 75.5388 293.066 74.3649C292.099 73.1909 291.456 71.7557 291.208 70.2178C290.206 64.3209 291.588 54.5779 297.782 51.9639C299.083 51.3538 300.514 51.1248 301.927 51.3005C303.34 51.4763 304.682 52.0505 305.816 52.9636C306.949 53.8767 307.832 55.0955 308.374 56.4936C308.915 57.8916 309.094 59.4181 308.894 60.9148Z" fill="#E58A7B"/>
<path d="M298.718 56.03C303.305 54.789 306.675 53.9441 305.466 58.0015C303.868 63.4231 301.947 68.6686 304.522 68.9063C306.095 69.0559 313.05 65.9226 312.164 62.7454C311.394 59.9818 314.648 59.2249 315.228 57.8255C317.372 52.7559 311.237 53.4248 312.33 50.3444C313.423 47.2639 307.362 42.3 304.05 44.7732C298.66 48.7689 289.411 48.7073 294.271 42.1328C297.757 37.4417 291.539 38.401 291.539 38.401C291.539 38.401 295.298 40.7686 288.972 44.4299C282.282 48.3377 288.417 58.8376 298.718 56.03Z" fill="#263238"/>
<path d="M311.328 68.1495C310.422 69.5423 309.062 70.5274 307.511 70.9131C305.466 71.3796 304.679 69.4345 305.449 67.4806C306.136 65.7204 308.024 63.3528 309.978 63.7577C311.932 64.1625 312.38 66.4244 311.328 68.1495Z" fill="#E58A7B"/>
<path d="M281.023 144.289C281.023 144.289 275.426 197.537 274.987 217.745C274.54 238.762 293.957 304.341 293.957 304.341L303.893 299.94C303.893 299.94 292.301 240.021 293.957 219.382C295.712 196.877 302.965 144.325 302.965 144.325L281.023 144.289Z" fill="#87A2FB"/>
<path opacity="0.2" d="M294.934 158.908C290.471 168.748 293.476 188.208 295.894 199.737C296.813 191.596 297.906 182.76 298.941 174.583C298.842 162.015 297.923 152.307 294.934 158.908Z" fill="black"/>
<path d="M303.454 296.455C303.503 296.455 304.629 299.817 304.629 299.817L293.17 304.939L291.365 301.366L303.454 296.455Z" fill="#87A2FB"/>
<path d="M292.855 144.289C292.855 144.289 297.136 194.932 299.968 213.899C303.081 234.679 315.286 303.883 315.286 303.883H326.704C326.704 303.883 319.865 236.36 318.573 215.782C317.165 193.462 314.367 144.289 314.367 144.289H292.855Z" fill="#87A2FB"/>
<path d="M326.878 300.723C326.927 300.723 327.259 304.112 327.259 304.112H314.706L313.812 300.222L326.878 300.723Z" fill="#87A2FB"/>
<path opacity="0.2" d="M322.506 296.71C322.48 296.71 322.455 296.701 322.435 296.683C322.415 296.665 322.402 296.64 322.398 296.613C322.332 295.997 316.164 235.004 315.004 216.522C313.746 196.472 311.212 151.999 311.187 151.55C311.186 151.536 311.188 151.521 311.192 151.507C311.197 151.493 311.204 151.481 311.213 151.47C311.223 151.459 311.234 151.451 311.247 151.445C311.259 151.439 311.273 151.436 311.287 151.436C311.314 151.436 311.34 151.447 311.36 151.466C311.38 151.486 311.392 151.513 311.394 151.542C311.394 151.991 313.953 196.428 315.211 216.513C316.371 234.995 322.539 295.944 322.597 296.604C322.599 296.619 322.599 296.634 322.595 296.648C322.592 296.663 322.586 296.676 322.577 296.688C322.569 296.699 322.558 296.709 322.546 296.716C322.533 296.723 322.52 296.727 322.506 296.728V296.71Z" fill="black"/>
<path d="M299.421 62.7454C299.421 63.2822 299.107 63.7135 298.776 63.7135C298.444 63.7135 298.204 63.2822 298.237 62.7454C298.27 62.2085 298.552 61.7772 298.883 61.7772C299.214 61.7772 299.454 62.2173 299.421 62.7454Z" fill="#263238"/>
<path d="M293.741 62.7454C293.741 63.2822 293.418 63.7135 293.095 63.7135C292.773 63.7135 292.524 63.2822 292.549 62.7454C292.574 62.2085 292.872 61.7772 293.203 61.7772C293.534 61.7772 293.774 62.2173 293.741 62.7454Z" fill="#263238"/>
<path d="M295.53 63.0182C294.839 64.6576 293.948 66.1934 292.88 67.5861C293.708 68.4662 295.256 68.0613 295.256 68.0613L295.53 63.0182Z" fill="#DF5753"/>
<path d="M295.679 70.3056C295.66 70.3057 295.641 70.3015 295.623 70.2935C295.605 70.2854 295.589 70.2736 295.576 70.2587C295.563 70.2439 295.553 70.2263 295.546 70.2072C295.54 70.188 295.537 70.1676 295.538 70.1472C295.54 70.1044 295.558 70.0641 295.587 70.0346C295.616 70.0051 295.655 69.9887 295.695 69.9888C296.329 69.9934 296.955 69.8472 297.528 69.5609C298.101 69.2746 298.607 68.8554 299.007 68.3341C299.036 68.3075 299.073 68.2928 299.111 68.2928C299.149 68.2928 299.186 68.3075 299.214 68.3341C299.241 68.3637 299.256 68.4031 299.256 68.4441C299.256 68.4852 299.241 68.5246 299.214 68.5542C298.785 69.1081 298.245 69.553 297.633 69.8561C297.022 70.1591 296.354 70.3128 295.679 70.3056Z" fill="#263238"/>
<path d="M300.432 61.1259C300.392 61.1476 300.348 61.1589 300.303 61.1589C300.259 61.1589 300.215 61.1476 300.175 61.1259C299.865 60.9131 299.513 60.7807 299.146 60.7394C298.779 60.6981 298.408 60.7491 298.063 60.8883C298.03 60.9062 297.993 60.9167 297.956 60.9193C297.918 60.9219 297.881 60.9164 297.845 60.9033C297.81 60.8902 297.777 60.8696 297.749 60.8429C297.721 60.8161 297.698 60.7837 297.683 60.7475C297.652 60.6692 297.651 60.5812 297.68 60.5023C297.71 60.4234 297.767 60.3598 297.84 60.325C298.273 60.1371 298.742 60.063 299.207 60.1089C299.673 60.1549 300.121 60.3196 300.514 60.5891C300.546 60.612 300.573 60.6414 300.594 60.6756C300.615 60.7098 300.629 60.748 300.636 60.7881C300.643 60.8283 300.643 60.8695 300.635 60.9093C300.626 60.9492 300.611 60.9869 300.589 61.0203C300.547 61.0708 300.492 61.1074 300.432 61.1259Z" fill="#263238"/>
<path d="M291.547 59.3658C291.503 59.3544 291.463 59.33 291.431 59.2954C291.404 59.2667 291.382 59.2325 291.367 59.1947C291.352 59.1569 291.344 59.1163 291.344 59.0753C291.344 59.0344 291.352 58.9938 291.367 58.956C291.382 58.9182 291.404 58.884 291.431 58.8553C291.748 58.477 292.144 58.1816 292.586 57.9923C293.028 57.803 293.506 57.7249 293.981 57.764C294.019 57.7702 294.056 57.7847 294.089 57.8065C294.121 57.8284 294.149 57.8571 294.171 57.8909C294.193 57.9248 294.208 57.963 294.215 58.0032C294.222 58.0434 294.222 58.0848 294.213 58.1248C294.195 58.2063 294.15 58.2781 294.086 58.3267C294.022 58.3753 293.944 58.3974 293.865 58.3888C293.489 58.3636 293.113 58.4298 292.764 58.5823C292.415 58.7348 292.104 58.9696 291.853 59.269C291.816 59.3135 291.767 59.3461 291.713 59.3632C291.659 59.3803 291.602 59.3812 291.547 59.3658Z" fill="#263238"/>
<path d="M322.696 95.3366L314.085 92.8987C314.085 92.8987 305.64 114.999 302.651 116.433C298.593 118.405 288.318 125.235 283.946 128.465C283.706 129.565 283.896 132.478 284.443 133.279C291.895 131.836 306.161 126 309.142 123.034C315.94 116.266 322.696 95.3366 322.696 95.3366Z" fill="#E58A7B"/>
<path d="M316.685 313.239C316.265 313.274 315.846 313.153 315.501 312.895C315.394 312.793 315.315 312.663 315.27 312.518C315.225 312.373 315.216 312.218 315.244 312.068C315.25 311.975 315.279 311.884 315.328 311.807C315.378 311.729 315.446 311.668 315.526 311.628C316.221 311.25 318.167 312.561 318.391 312.711C318.415 312.727 318.434 312.751 318.445 312.78C318.455 312.808 318.457 312.84 318.449 312.869C318.442 312.9 318.427 312.928 318.407 312.951C318.387 312.974 318.361 312.991 318.333 313.001C317.793 313.142 317.241 313.222 316.685 313.239ZM315.857 311.866C315.794 311.851 315.729 311.851 315.667 311.866C315.635 311.883 315.609 311.909 315.591 311.942C315.573 311.975 315.565 312.013 315.567 312.051C315.545 312.153 315.549 312.26 315.578 312.36C315.607 312.461 315.661 312.551 315.733 312.623C316.056 312.931 316.867 312.966 317.935 312.746C317.299 312.301 316.583 312.001 315.832 311.866H315.857Z" fill="#87A2FB"/>
<path d="M318.291 313.001C318.27 313.009 318.247 313.009 318.225 313.001C317.604 312.632 316.437 311.179 316.611 310.44C316.637 310.323 316.699 310.218 316.788 310.143C316.876 310.068 316.986 310.027 317.099 310.026C317.21 310.011 317.323 310.02 317.43 310.055C317.538 310.09 317.636 310.149 317.72 310.229C318.407 310.854 318.449 312.772 318.449 312.869C318.453 312.898 318.448 312.928 318.434 312.953C318.421 312.979 318.4 312.999 318.374 313.01C318.346 313.016 318.318 313.013 318.291 313.001ZM317.182 310.317H317.124C316.934 310.317 316.909 310.431 316.9 310.475C316.801 310.906 317.538 312.007 318.151 312.526C318.148 311.782 317.931 311.058 317.53 310.449C317.434 310.36 317.309 310.313 317.182 310.317Z" fill="#87A2FB"/>
<path d="M294.702 312.139C294.195 312.327 293.643 312.327 293.137 312.139C293.022 312.072 292.924 311.976 292.853 311.86C292.782 311.743 292.74 311.609 292.731 311.47C292.721 311.383 292.731 311.294 292.762 311.213C292.792 311.131 292.841 311.059 292.905 311.003C293.567 310.37 296.275 311.003 296.581 311.127C296.61 311.135 296.636 311.153 296.654 311.178C296.672 311.204 296.682 311.235 296.681 311.267C296.682 311.3 296.674 311.333 296.658 311.361C296.642 311.389 296.618 311.412 296.59 311.426C295.98 311.718 295.348 311.957 294.702 312.139ZM293.352 311.091C293.257 311.112 293.169 311.157 293.095 311.223C293.069 311.244 293.049 311.273 293.037 311.306C293.025 311.338 293.023 311.374 293.029 311.408C293.035 311.501 293.062 311.59 293.108 311.668C293.154 311.747 293.218 311.812 293.294 311.857C293.733 312.104 294.751 311.91 296.068 311.32C295.181 311.082 294.263 311.005 293.352 311.091Z" fill="#87A2FB"/>
<path d="M296.565 311.426H296.499C295.671 311.267 294.015 310.255 293.965 309.498C293.965 309.322 294.039 309.076 294.437 308.935C294.571 308.884 294.714 308.863 294.856 308.872C294.998 308.881 295.137 308.92 295.265 308.988C296.159 309.454 296.631 311.144 296.656 311.223C296.662 311.25 296.661 311.278 296.654 311.304C296.646 311.33 296.633 311.354 296.614 311.373C296.602 311.394 296.585 311.413 296.565 311.426ZM294.602 309.199H294.52C294.263 309.296 294.263 309.41 294.263 309.445C294.263 309.903 295.464 310.739 296.3 311.021C296.107 310.314 295.7 309.695 295.141 309.261C294.974 309.171 294.783 309.149 294.602 309.199Z" fill="#87A2FB"/>
<path d="M284.65 127.945L276.014 132.17L275.012 134.81L278.2 137.09C278.2 137.09 284.161 136.403 285.859 132.328L284.65 127.945Z" fill="#E58A7B"/>
<path d="M285.014 133.428C284.821 131.665 284.273 129.966 283.408 128.447L284.774 127.356C285.802 129.106 286.457 131.073 286.695 133.12L285.014 133.428Z" fill="#263238"/>
<path d="M286.488 129.195C286.671 129.5 286.76 129.858 286.745 130.219C286.729 130.581 286.61 130.928 286.402 131.215C286.194 131.501 285.908 131.712 285.583 131.82C285.259 131.928 284.91 131.926 284.586 131.816C284.262 131.706 283.978 131.493 283.772 131.205C283.566 130.917 283.449 130.568 283.436 130.207C283.423 129.845 283.515 129.488 283.7 129.184C283.884 128.881 284.152 128.645 284.468 128.509C284.822 128.317 285.232 128.281 285.611 128.41C285.989 128.539 286.304 128.821 286.488 129.195Z" fill="#263238"/>
<path d="M270.176 135.585L271.327 136.817L279.077 133.296L276.014 132.17L270.176 135.585Z" fill="#E58A7B"/>
<path opacity="0.2" d="M303.454 296.455C303.503 296.455 304.629 299.817 304.629 299.817L293.17 304.939L291.365 301.366L303.454 296.455Z" fill="black"/>
<path opacity="0.2" d="M326.878 300.723C326.927 300.723 327.259 304.112 327.259 304.112H314.706L313.812 300.222L326.878 300.723Z" fill="black"/>
<path d="M324.94 92.8017C327.217 100.608 318.316 111.284 318.316 111.284L306.021 105.951C307.478 101.439 309.158 97.0113 311.055 92.6873C314.83 84.0357 322.638 84.9246 324.94 92.8017Z" fill="#87A2FB"/>
<path opacity="0.2" d="M324.94 92.8017C327.217 100.608 318.316 111.284 318.316 111.284L306.021 105.951C307.478 101.439 309.158 97.0113 311.055 92.6873C314.83 84.0357 322.638 84.9246 324.94 92.8017Z" fill="black"/>
<path d="M202.761 14.5847H197.47V15.4912H202.761V14.5847Z" fill="#87A2FB"/>
<path d="M271.251 50.4646L270.611 65.5698L271.463 65.6106L272.103 50.5054L271.251 50.4646Z" fill="#87A2FB"/>
<path d="M269.605 18.6511H171.901L162.81 234.916H260.514L269.605 18.6511Z" fill="#87A2FB"/>
<path opacity="0.56" d="M266.691 21.6259H168.987L159.895 237.891H257.599L266.691 21.6259Z" fill="#FAFAFA"/>
<path opacity="0.07" d="M263.776 24.5918H166.072L156.972 240.857H254.676L263.776 24.5918Z" fill="#87A2FB"/>
<path d="M252.656 118.915H169.26L168.564 135.462H251.96L252.656 118.915Z" fill="white"/>
<path d="M215.123 106.84H169.765L169.458 114.242H214.816L215.123 106.84Z" fill="#87A2FB"/>
<path d="M250.776 163.573H167.38L166.685 180.119H250.081L250.776 163.573Z" fill="white"/>
<path opacity="0.47" d="M235.483 202.466H179.403L178.567 222.295H234.647L235.483 202.466Z" fill="#87A2FB"/>
<path d="M231.732 225.376H175.652C175.627 225.382 175.602 225.382 175.577 225.376C175.569 225.35 175.569 225.322 175.577 225.296L176.405 205.458C176.405 205.445 176.408 205.431 176.413 205.419C176.418 205.407 176.426 205.396 176.435 205.386C176.444 205.377 176.455 205.37 176.467 205.366C176.479 205.362 176.492 205.36 176.505 205.361H232.585C232.595 205.356 232.607 205.353 232.618 205.353C232.63 205.353 232.641 205.356 232.651 205.361C232.657 205.372 232.66 205.384 232.66 205.397C232.66 205.409 232.657 205.421 232.651 205.432L231.84 225.314C231.83 225.335 231.814 225.352 231.795 225.363C231.776 225.374 231.754 225.378 231.732 225.376ZM175.751 225.164H231.633L232.461 205.537H176.579L175.751 225.164Z" fill="white"/>
<path d="M205.327 151.498H167.885L167.579 158.908H205.013L205.327 151.498Z" fill="#87A2FB"/>
<path d="M234.415 65.4651C234.201 70.2806 232.59 74.9077 229.803 78.711C227.74 81.5839 225.085 83.9162 222.042 85.5288C219 87.1414 215.65 87.9916 212.249 88.014C209.502 88.0363 206.779 87.4604 204.249 86.3218C201.719 85.1832 199.434 83.506 197.537 81.3935C195.64 79.281 194.169 76.778 193.216 74.0386C192.264 71.2992 191.848 68.3815 191.997 65.4651C192.288 59.4134 194.743 53.7084 198.86 49.517C202.977 45.3256 208.445 42.9644 214.146 42.9162C216.895 42.889 219.621 43.4613 222.154 44.598C224.688 45.7346 226.975 47.4114 228.874 49.5246C230.774 51.6379 232.246 54.1428 233.199 56.8845C234.152 59.6263 234.566 62.5466 234.415 65.4651Z" fill="white"/>
<path d="M236.411 47.6337C236.357 48.9141 235.928 50.1447 235.185 51.1542C234.635 51.9172 233.929 52.5367 233.119 52.9653C232.31 53.3939 231.419 53.6204 230.515 53.6273C229.639 53.633 228.775 53.4106 227.999 52.9794C227.222 52.5483 226.557 51.9217 226.061 51.1542C225.404 50.1171 225.078 48.8826 225.133 47.6337C225.213 46.0269 225.867 44.5131 226.961 43.401C228.055 42.2889 229.507 41.6622 231.02 41.6488C231.751 41.6417 232.474 41.7936 233.147 42.0952C233.82 42.3968 234.428 42.8417 234.933 43.4024C235.438 43.9631 235.829 44.6278 236.084 45.3555C236.338 46.0832 236.449 46.8585 236.411 47.6337Z" fill="#87A2FB"/>
<path d="M178.244 127.189C178.204 127.898 177.913 128.565 177.429 129.055C176.945 129.545 176.304 129.821 175.635 129.829C175.313 129.833 174.993 129.767 174.695 129.634C174.397 129.501 174.128 129.305 173.905 129.058C173.681 128.81 173.508 128.517 173.396 128.195C173.283 127.874 173.234 127.531 173.251 127.189C173.287 126.478 173.577 125.809 174.062 125.318C174.546 124.827 175.189 124.552 175.859 124.548C176.181 124.545 176.501 124.613 176.798 124.746C177.095 124.879 177.363 125.075 177.587 125.322C177.81 125.569 177.983 125.862 178.096 126.183C178.209 126.504 178.259 126.846 178.244 127.189Z" fill="#263238"/>
<path d="M189.405 127.189C189.367 127.898 189.077 128.567 188.592 129.057C188.108 129.547 187.466 129.823 186.797 129.829C186.475 129.832 186.156 129.765 185.859 129.631C185.562 129.498 185.294 129.302 185.072 129.055C184.849 128.807 184.677 128.514 184.565 128.193C184.453 127.872 184.403 127.53 184.42 127.189C184.456 126.479 184.745 125.811 185.228 125.321C185.711 124.83 186.352 124.554 187.02 124.548C187.343 124.544 187.663 124.61 187.961 124.743C188.258 124.876 188.527 125.072 188.751 125.319C188.974 125.567 189.148 125.86 189.26 126.182C189.373 126.503 189.422 126.846 189.405 127.189Z" fill="#263238"/>
<path d="M200.575 127.189C200.537 127.898 200.246 128.567 199.762 129.057C199.277 129.547 198.635 129.823 197.966 129.829C197.644 129.832 197.325 129.765 197.027 129.631C196.73 129.498 196.462 129.302 196.239 129.055C196.015 128.808 195.842 128.515 195.729 128.194C195.616 127.873 195.566 127.531 195.582 127.189C195.62 126.479 195.91 125.811 196.395 125.32C196.879 124.83 197.521 124.554 198.19 124.548C198.513 124.544 198.833 124.61 199.13 124.743C199.428 124.876 199.697 125.072 199.92 125.319C200.144 125.567 200.317 125.86 200.43 126.182C200.542 126.503 200.592 126.846 200.575 127.189Z" fill="#263238"/>
<path d="M176.364 171.846C176.324 172.555 176.033 173.222 175.549 173.712C175.065 174.202 174.424 174.479 173.756 174.487C173.433 174.489 173.114 174.422 172.817 174.289C172.52 174.156 172.251 173.96 172.028 173.713C171.805 173.465 171.631 173.172 171.518 172.851C171.406 172.531 171.355 172.188 171.371 171.846C171.409 171.136 171.7 170.468 172.184 169.978C172.669 169.487 173.31 169.211 173.979 169.206C174.302 169.203 174.621 169.27 174.918 169.403C175.215 169.536 175.484 169.732 175.707 169.98C175.93 170.227 176.104 170.52 176.217 170.841C176.33 171.162 176.38 171.504 176.364 171.846Z" fill="#263238"/>
<path d="M187.525 171.846C187.488 172.555 187.198 173.221 186.716 173.712C186.233 174.202 185.593 174.479 184.926 174.487C184.603 174.491 184.283 174.424 183.985 174.292C183.687 174.159 183.419 173.963 183.195 173.715C182.972 173.468 182.798 173.174 182.686 172.853C182.573 172.531 182.524 172.189 182.541 171.846C182.579 171.136 182.869 170.468 183.354 169.978C183.838 169.487 184.48 169.211 185.149 169.206C185.471 169.203 185.79 169.27 186.087 169.403C186.384 169.536 186.651 169.733 186.874 169.98C187.097 170.227 187.269 170.521 187.381 170.842C187.493 171.162 187.542 171.504 187.525 171.846Z" fill="#263238"/>
<path d="M198.72 171.846C198.682 172.556 198.392 173.224 197.907 173.715C197.423 174.205 196.781 174.481 196.112 174.487C195.79 174.488 195.471 174.42 195.174 174.287C194.878 174.153 194.61 173.957 194.387 173.71C194.164 173.463 193.99 173.17 193.877 172.85C193.764 172.53 193.713 172.188 193.727 171.846C193.767 171.137 194.058 170.47 194.542 169.98C195.026 169.49 195.667 169.213 196.335 169.206C196.658 169.202 196.978 169.268 197.276 169.401C197.573 169.533 197.842 169.729 198.066 169.977C198.289 170.224 198.463 170.518 198.575 170.839C198.688 171.161 198.737 171.504 198.72 171.846Z" fill="#263238"/>
<path d="M209.865 171.846C209.825 172.555 209.534 173.222 209.05 173.712C208.566 174.202 207.925 174.479 207.257 174.487C206.935 174.488 206.616 174.42 206.319 174.287C206.023 174.153 205.755 173.957 205.532 173.71C205.309 173.463 205.135 173.17 205.022 172.85C204.908 172.53 204.857 172.188 204.872 171.846C204.912 171.137 205.203 170.47 205.687 169.98C206.171 169.49 206.812 169.213 207.48 169.206C207.803 169.203 208.122 169.27 208.419 169.403C208.716 169.536 208.985 169.732 209.208 169.98C209.431 170.227 209.605 170.52 209.718 170.841C209.831 171.162 209.881 171.504 209.865 171.846Z" fill="#263238"/>
<path d="M221.076 171.846C221.036 172.555 220.745 173.222 220.261 173.712C219.777 174.202 219.136 174.479 218.468 174.487C218.145 174.491 217.825 174.424 217.527 174.292C217.23 174.159 216.961 173.963 216.737 173.715C216.514 173.468 216.34 173.174 216.228 172.853C216.115 172.531 216.066 172.189 216.083 171.846C216.121 171.136 216.412 170.468 216.896 169.978C217.381 169.487 218.022 169.211 218.691 169.206C219.014 169.203 219.333 169.27 219.63 169.403C219.927 169.536 220.196 169.732 220.419 169.98C220.642 170.227 220.816 170.52 220.929 170.841C221.042 171.162 221.092 171.504 221.076 171.846Z" fill="#263238"/>
<path d="M219.381 64.2906C222.847 60.6882 223.031 54.9139 219.792 51.3934C216.553 47.873 211.118 47.9394 207.653 51.5418C204.187 55.1442 204.003 60.9185 207.242 64.439C210.481 67.9594 215.916 67.893 219.381 64.2906Z" fill="#87A2FB"/>
<path d="M229.803 78.711C227.74 81.5838 225.085 83.9161 222.042 85.5287C219 87.1413 215.65 87.9915 212.25 88.0139C208.953 88.0436 205.699 87.2106 202.777 85.5882C199.854 83.9658 197.352 81.604 195.491 78.711C199.515 74.4511 205.882 71.6699 212.937 71.6699C219.991 71.6699 226.135 74.4511 229.803 78.711Z" fill="#87A2FB"/>
<path opacity="0.1" d="M219.381 64.2906C222.847 60.6882 223.031 54.9139 219.792 51.3934C216.553 47.873 211.118 47.9394 207.653 51.5418C204.187 55.1442 204.003 60.9185 207.242 64.439C210.481 67.9594 215.916 67.893 219.381 64.2906Z" fill="white"/>
<path opacity="0.1" d="M229.803 78.711C227.74 81.5838 225.085 83.9161 222.042 85.5287C219 87.1413 215.65 87.9915 212.25 88.0139C208.953 88.0436 205.699 87.2106 202.777 85.5882C199.854 83.9658 197.352 81.604 195.491 78.711C199.515 74.4511 205.882 71.6699 212.937 71.6699C219.991 71.6699 226.135 74.4511 229.803 78.711Z" fill="white"/>
<path d="M107.979 139.448C107.193 141.279 106.365 143.295 105.645 145.249C104.924 147.202 104.187 149.218 103.55 151.225C102.248 155.179 101.256 159.242 100.585 163.37L100.403 164.664C100.386 164.886 100.406 165.11 100.461 165.324C100.657 166.054 100.964 166.744 101.372 167.366C102.435 168.977 103.669 170.454 105.048 171.767C106.503 173.205 108.029 174.559 109.619 175.824C111.209 177.127 112.881 178.394 114.529 179.591L112.981 182.68C109.046 180.858 105.312 178.583 101.844 175.895C99.994 174.46 98.3244 172.78 96.876 170.895C96.0174 169.773 95.3479 168.502 94.8971 167.137C94.6349 166.285 94.5008 165.394 94.4996 164.497C94.4996 164.286 94.4996 163.978 94.4996 163.828V163.397L94.5824 162.517C95.0571 157.931 95.9642 153.408 97.29 149.015C97.9358 146.85 98.6231 144.694 99.4097 142.591C100.196 140.487 101.008 138.428 102.01 136.289L107.979 139.448Z" fill="#E58A7B"/>
<path d="M113.361 179.046L119.215 175.895L117.7 182.724C117.7 182.724 113.684 183.921 111.821 181.844L113.361 179.046Z" fill="#E58A7B"/>
<path d="M124.573 177.012L123.016 182.663L117.7 182.724L119.215 175.895L124.573 177.012Z" fill="#E58A7B"/>
<path d="M132.836 106.497C133.149 107.716 133.585 108.897 134.136 110.017C133.975 110.211 133.768 110.355 133.536 110.434C133.304 110.513 133.057 110.524 132.819 110.466L132.836 106.497Z" fill="#DF5753"/>
<path d="M132.662 106.549C133.005 106.549 133.283 106.096 133.283 105.537C133.283 104.978 133.005 104.525 132.662 104.525C132.319 104.525 132.041 104.978 132.041 105.537C132.041 106.096 132.319 106.549 132.662 106.549Z" fill="#263238"/>
<path d="M132.48 104.56L133.739 104.182C133.739 104.182 133.126 105.22 132.48 104.56Z" fill="#263238"/>
<path d="M116.665 112.957C117.419 117.049 118.172 124.557 115.473 127.294C115.473 127.294 116.533 131.448 123.695 131.448C131.569 131.448 127.454 127.294 127.454 127.294C123.157 126.203 123.264 122.814 124.018 119.628L116.665 112.957Z" fill="#E58A7B"/>
<path d="M114.57 103.627C114.968 110.466 115.001 113.37 118.247 116.882C123.14 122.163 130.956 120.156 132.488 113.362C133.871 107.201 132.993 97.0617 126.692 94.3421C125.309 93.7364 123.804 93.5158 122.318 93.7012C120.832 93.8865 119.416 94.4717 118.202 95.4013C116.988 96.3309 116.018 97.5742 115.382 99.0137C114.747 100.453 114.467 102.041 114.57 103.627Z" fill="#E58A7B"/>
<path d="M115.208 95.935C111.979 97.1847 107.673 96.2518 109.362 106.84C111.151 118.053 108.402 121.74 108.402 121.74C108.402 121.74 120.648 124.513 133.151 121.573C133.151 121.573 129.334 114.479 130.402 109.251C131.768 102.65 130.691 100.212 130.691 100.212C130.691 100.212 119.745 94.1747 115.208 95.935Z" fill="#263238"/>
<path d="M128.87 107.192C128.873 108.492 129.224 109.765 129.88 110.862C130.758 112.288 131.793 111.742 132.049 110.228C132.281 108.899 132.107 106.549 130.99 105.634C129.872 104.719 128.886 105.616 128.87 107.192Z" fill="#E58A7B"/>
<path d="M112.401 97.0881C111.474 94.3157 115.895 90.0471 125.252 91.8073C134.608 93.5676 135.014 101.85 135.014 101.85L133.126 99.4557L133.209 101.973L123.596 103.936L112.401 97.0881Z" fill="#263238"/>
<path d="M113.196 127.761C113.141 127.359 113.235 126.95 113.46 126.621C113.684 126.292 114.02 126.069 114.396 126C117.311 125.49 123.935 124.451 127.264 124.944C129.748 125.314 130.393 126.845 130.501 128.104C130.518 128.324 130.49 128.546 130.42 128.754C130.349 128.962 130.238 129.152 130.093 129.31C129.948 129.468 129.772 129.592 129.578 129.672C129.385 129.753 129.177 129.788 128.969 129.776L114.579 129.09C114.239 129.071 113.916 128.929 113.664 128.687C113.413 128.445 113.247 128.118 113.196 127.761Z" fill="#87A2FB"/>
<path opacity="0.6" d="M113.196 127.761C113.141 127.359 113.235 126.95 113.46 126.621C113.684 126.292 114.02 126.069 114.396 126C117.311 125.49 123.935 124.451 127.264 124.944C129.748 125.314 130.393 126.845 130.501 128.104C130.518 128.324 130.49 128.546 130.42 128.754C130.349 128.962 130.238 129.152 130.093 129.31C129.948 129.468 129.772 129.592 129.578 129.672C129.385 129.753 129.177 129.788 128.969 129.776L114.579 129.09C114.239 129.071 113.916 128.929 113.664 128.687C113.413 128.445 113.247 128.118 113.196 127.761Z" fill="black"/>
<path d="M121.517 281.519L126.858 285.462L135.792 272.586L130.451 268.651L121.517 281.519Z" fill="#E58A7B"/>
<path d="M109.064 281.264L114.703 284.679L122.61 271.063L116.972 267.648L109.064 281.264Z" fill="#E58A7B"/>
<path d="M135.784 272.586L131.18 279.222L125.839 275.288L130.443 268.651L135.784 272.586Z" fill="#CF6F64"/>
<path d="M116.963 267.648L122.61 271.072L118.536 278.087L112.89 274.663L116.963 267.648Z" fill="#CF6F64"/>
<path d="M126.022 170.746C126.022 170.746 146.871 198.673 142.954 225.384C139.8 246.956 121.501 276.168 121.501 276.168L112.898 271.626C118.962 258.711 124.136 245.345 128.381 231.633C129.69 227.376 130.073 222.859 129.499 218.422C128.925 213.985 127.41 209.745 125.069 206.022C114.504 189.625 97.5798 199.385 108.965 170.746H126.022Z" fill="#87A2FB"/>
<path opacity="0.6" d="M126.022 170.746C126.022 170.746 146.871 198.673 142.954 225.384C139.8 246.956 121.501 276.168 121.501 276.168L112.898 271.626C118.962 258.711 124.136 245.345 128.381 231.633C129.69 227.376 130.073 222.859 129.499 218.422C128.925 213.985 127.41 209.745 125.069 206.022C114.504 189.625 97.5798 199.385 108.965 170.746H126.022Z" fill="black"/>
<path opacity="0.4" d="M136.247 188.683L133.217 185.479C133.217 185.734 139.087 224.258 140.735 235.083C141.708 231.921 142.452 228.684 142.962 225.402C144.9 212.297 140.851 198.91 136.247 188.683Z" fill="black"/>
<path d="M135.328 170.746C135.328 170.746 160.433 205.846 161.145 226.889C161.733 244.492 133.821 278.597 133.821 278.597L125.707 273.017C125.707 273.017 142.043 248.796 146.159 229.011C144.569 209.401 110.952 170.746 110.952 170.746H135.328Z" fill="#87A2FB"/>
<path opacity="0.6" d="M135.328 170.746C135.328 170.746 160.433 205.846 161.145 226.889C161.733 244.492 133.821 278.597 133.821 278.597L125.707 273.017C125.707 273.017 142.043 248.796 146.159 229.011C144.569 209.401 110.952 170.746 110.952 170.746H135.328Z" fill="black"/>
<path d="M104.27 128.861C101.587 129.538 99.0123 139.906 99.0123 139.906L109.503 147.352C109.503 147.352 112.997 139.149 111.772 135.558C110.505 131.818 107.64 128.007 104.27 128.861Z" fill="#87A2FB"/>
<path opacity="0.2" d="M106.323 135.541L105.595 144.58L109.495 147.361C110.572 144.784 111.369 142.085 111.871 139.317L106.323 135.541Z" fill="black"/>
<path d="M138.433 129.063C138.433 129.063 141.53 130.216 135.328 170.737H108.948C109.395 159.296 109.404 152.254 104.27 128.861C107.964 128.052 111.708 127.528 115.473 127.294C119.461 126.99 123.465 126.99 127.454 127.294C132.604 127.796 138.433 129.063 138.433 129.063Z" fill="#87A2FB"/>
<path d="M141.116 135.541C141.712 137.301 142.342 139.193 143.004 141.015C143.666 142.837 144.296 144.712 144.966 146.56L146.995 152.087L147.508 153.469L147.773 154.156L147.897 154.499C147.897 154.561 147.897 154.561 147.897 154.552C147.746 154.325 147.548 154.138 147.318 154.006C146.99 153.801 146.621 153.683 146.241 153.663C145.926 153.652 145.612 153.715 145.322 153.848C144.941 154.032 144.941 154.112 144.95 154.103C145.019 154.044 145.08 153.976 145.132 153.9C145.59 153.261 145.987 152.574 146.316 151.85C146.705 151.04 147.078 150.177 147.45 149.306C148.179 147.546 148.85 145.724 149.52 143.885C150.191 142.045 150.829 140.188 151.45 138.313L153.337 132.698L156.525 133.578C155.896 137.592 155.084 141.499 154.107 145.478C153.635 147.458 153.081 149.421 152.451 151.401C152.137 152.395 151.789 153.381 151.392 154.393C150.977 155.492 150.467 156.547 149.868 157.544C149.648 157.88 149.404 158.198 149.139 158.495C148.717 158.98 148.203 159.367 147.632 159.63C147.126 159.861 146.577 159.969 146.026 159.947C145.409 159.922 144.808 159.732 144.279 159.392C143.655 158.979 143.138 158.407 142.772 157.729C142.648 157.5 142.54 157.271 142.466 157.104L142.308 156.77L141.994 156.083L141.364 154.719C140.536 152.888 139.708 151.04 138.988 149.183C138.268 147.326 137.506 145.442 136.794 143.55C136.082 141.658 135.444 139.766 134.84 137.724L141.116 135.541Z" fill="#E58A7B"/>
<path d="M138.433 129.063C141.605 129.864 145.173 139.827 145.173 139.827L135.742 148.355C135.742 148.355 129.64 137.495 130.874 133.913C132.157 130.181 134.293 128.016 138.433 129.063Z" fill="#87A2FB"/>
<path d="M154.836 129.547L158.148 126.608L160.45 130.419L158.752 133.596C158.752 133.596 156.053 136.236 153.669 134.89C153.29 133.985 153.199 132.975 153.41 132.01C153.621 131.046 154.121 130.182 154.836 129.547Z" fill="#E58A7B"/>
<path d="M164.126 126.616L163.878 127.576L158.637 128.509L158.123 126.608L164.126 126.616Z" fill="#E58A7B"/>
<path d="M134.467 279.046L125.011 272.551L126.709 269.417L137.332 276.361L134.467 279.046Z" fill="#87A2FB"/>
<path d="M118.404 284.221C117.574 284.113 116.777 283.813 116.069 283.341C116.04 283.33 116.014 283.31 115.997 283.283C115.979 283.256 115.969 283.224 115.969 283.191C115.969 283.158 115.979 283.126 115.997 283.099C116.014 283.073 116.04 283.052 116.069 283.042C116.326 282.954 118.553 282.223 119.199 282.786C119.271 282.851 119.327 282.934 119.359 283.029C119.391 283.123 119.398 283.225 119.381 283.323C119.37 283.482 119.32 283.634 119.238 283.767C119.155 283.899 119.042 284.007 118.909 284.08C118.754 284.17 118.581 284.218 118.404 284.221ZM116.541 283.253C117.576 283.816 118.404 284.019 118.801 283.807C118.888 283.756 118.961 283.683 119.013 283.593C119.065 283.504 119.095 283.402 119.1 283.297C119.1 283.156 119.1 283.094 119.025 283.059C118.677 282.76 117.435 282.989 116.524 283.253H116.541Z" fill="#263238"/>
<path d="M116.127 283.402C116.083 283.402 116.042 283.383 116.011 283.35C115.999 283.325 115.992 283.298 115.992 283.27C115.992 283.243 115.999 283.216 116.011 283.191C116.011 283.112 116.549 281.202 117.394 280.771C117.502 280.719 117.619 280.692 117.737 280.692C117.856 280.692 117.973 280.719 118.081 280.771C118.197 280.81 118.298 280.889 118.367 280.996C118.436 281.103 118.469 281.231 118.462 281.361C118.404 282.153 116.889 283.244 116.193 283.429L116.127 283.402ZM117.733 281C117.653 281.002 117.574 281.023 117.501 281.061C116.988 281.325 116.566 282.355 116.359 282.98C117.087 282.654 118.089 281.792 118.122 281.308C118.122 281.229 118.122 281.132 117.932 281.044C117.87 281.008 117.803 280.984 117.733 280.973V281Z" fill="#263238"/>
<path d="M130.22 288.023C129.284 288.023 127.984 286.747 127.272 285.964C127.254 285.937 127.244 285.904 127.244 285.871C127.244 285.838 127.254 285.806 127.272 285.779C127.288 285.751 127.311 285.727 127.339 285.712C127.367 285.696 127.398 285.689 127.429 285.691C127.76 285.691 130.634 286.149 131.039 287.011C131.082 287.088 131.105 287.177 131.105 287.266C131.105 287.356 131.082 287.444 131.039 287.522C130.978 287.656 130.886 287.772 130.772 287.858C130.658 287.944 130.525 287.998 130.385 288.014L130.22 288.023ZM127.818 286.087C128.862 287.161 129.781 287.759 130.302 287.689C130.394 287.676 130.481 287.64 130.556 287.583C130.631 287.526 130.692 287.451 130.733 287.363C130.751 287.333 130.761 287.298 130.761 287.262C130.761 287.226 130.751 287.191 130.733 287.161C130.518 286.685 128.986 286.281 127.818 286.087Z" fill="#263238"/>
<path d="M127.909 286.043C127.724 286.049 127.538 286.034 127.355 285.999C127.329 285.995 127.305 285.984 127.285 285.967C127.264 285.95 127.249 285.928 127.239 285.902C127.226 285.876 127.22 285.848 127.22 285.819C127.22 285.789 127.226 285.761 127.239 285.735C127.288 285.673 128.406 284.239 129.466 284.142C129.766 284.117 130.063 284.218 130.294 284.424C130.617 284.723 130.6 284.987 130.518 285.154C130.311 285.752 128.878 286.043 127.909 286.043ZM127.694 285.717C128.622 285.77 130.104 285.444 130.294 285.013C130.294 285.013 130.36 284.872 130.145 284.679C130.059 284.6 129.959 284.54 129.851 284.504C129.743 284.467 129.629 284.455 129.516 284.468C128.802 284.679 128.166 285.119 127.694 285.726V285.717Z" fill="#263238"/>
<path d="M116.351 282.452L109.329 280.34C109.208 280.301 109.078 280.311 108.963 280.367C108.849 280.424 108.758 280.524 108.708 280.648L106.34 286.307C106.284 286.452 106.258 286.608 106.263 286.764C106.268 286.921 106.305 287.074 106.37 287.215C106.435 287.355 106.527 287.479 106.64 287.579C106.753 287.679 106.885 287.752 107.027 287.794C109.511 288.481 110.704 288.674 113.792 289.616C115.696 290.179 118.412 291.227 121.037 292.019C123.662 292.811 124.539 290.091 123.521 289.511C118.917 286.923 118.553 285.11 117.294 283.174C117.069 282.823 116.735 282.568 116.351 282.452Z" fill="#87A2FB"/>
<path d="M127.462 284.934L121.468 280.533C121.366 280.454 121.241 280.418 121.116 280.431C120.99 280.444 120.874 280.506 120.789 280.604L116.814 285.145C116.717 285.262 116.645 285.4 116.602 285.55C116.56 285.699 116.547 285.856 116.566 286.011C116.585 286.166 116.634 286.315 116.711 286.448C116.788 286.581 116.891 286.695 117.013 286.782C119.124 288.287 120.217 288.894 122.859 290.84C124.515 292.036 127.719 294.694 129.955 296.349C132.19 298.004 133.854 295.733 133.06 294.835C129.499 290.795 128.721 288.261 128.133 285.964C128.031 285.547 127.793 285.182 127.462 284.934Z" fill="#87A2FB"/>
<path d="M122.602 276.749L111.797 271.037L112.914 267.921L124.457 273.941L122.602 276.749Z" fill="#87A2FB"/>
<path d="M108.551 169.091L107.64 171.626C107.549 171.82 107.764 172.022 108.071 172.022H135.461C135.701 172.022 135.9 171.899 135.916 171.74L136.148 169.223C136.148 169.056 135.958 168.906 135.701 168.906H108.981C108.901 168.898 108.82 168.911 108.745 168.943C108.67 168.975 108.603 169.026 108.551 169.091Z" fill="#87A2FB"/>
<path opacity="0.4" d="M108.551 169.091L107.64 171.626C107.549 171.82 107.764 172.022 108.071 172.022H135.461C135.701 172.022 135.9 171.899 135.916 171.74L136.148 169.223C136.148 169.056 135.958 168.906 135.701 168.906H108.981C108.901 168.898 108.82 168.911 108.745 168.943C108.67 168.975 108.603 169.026 108.551 169.091Z" fill="white"/>
<path d="M112.865 172.269H112.144C112.004 172.269 111.896 172.189 111.904 172.093L112.244 168.827C112.244 168.739 112.376 168.66 112.517 168.66H113.237C113.378 168.66 113.486 168.739 113.477 168.827L113.138 172.093C113.13 172.189 113.005 172.269 112.865 172.269Z" fill="#87A2FB"/>
<path d="M129.756 172.269H129.044C128.903 172.269 128.795 172.189 128.804 172.093L129.135 168.827C129.135 168.739 129.276 168.66 129.416 168.66H130.128C130.269 168.66 130.385 168.739 130.369 168.827L130.037 172.093C129.996 172.189 129.905 172.269 129.756 172.269Z" fill="#87A2FB"/>
<g style="mix-blend-mode:multiply">
<path d="M112.235 321.318C124.486 321.318 134.418 320.554 134.418 319.611C134.418 318.668 124.486 317.903 112.235 317.903C99.9846 317.903 90.0533 318.668 90.0533 319.611C90.0533 320.554 99.9846 321.318 112.235 321.318Z" fill="#F5F5F5"/>
</g>
<path d="M125.748 317.199C121.824 315.985 117.468 314.427 114.835 312.799C114.761 312.746 114.678 312.719 114.604 312.675V293.788H122.544C123.147 293.75 123.713 293.469 124.127 293.002C124.541 292.535 124.772 291.917 124.772 291.275C124.772 290.633 124.541 290.016 124.127 289.549C123.713 289.082 123.147 288.8 122.544 288.762H114.645V202.668H109.876V288.762H101.985C101.663 288.742 101.34 288.792 101.036 288.909C100.733 289.026 100.455 289.208 100.221 289.443C99.9857 289.679 99.7985 289.963 99.6706 290.278C99.5427 290.593 99.4767 290.932 99.4767 291.275C99.4767 291.618 99.5427 291.958 99.6706 292.273C99.7985 292.588 99.9857 292.872 100.221 293.107C100.455 293.342 100.733 293.524 101.036 293.641C101.34 293.758 101.663 293.808 101.985 293.788H109.876V312.649C109.801 312.649 109.727 312.719 109.652 312.772C106.978 314.427 102.655 315.985 98.7307 317.173C98.4656 317.258 98.238 317.441 98.089 317.69C97.94 317.938 97.8796 318.235 97.9186 318.526C97.9576 318.818 98.0936 319.084 98.3018 319.279C98.51 319.473 98.7767 319.581 99.0537 319.584H125.425C125.69 319.565 125.941 319.45 126.135 319.258C126.33 319.067 126.456 318.81 126.494 318.531C126.532 318.252 126.478 317.967 126.343 317.725C126.207 317.483 125.997 317.297 125.748 317.199Z" fill="#E0E0E0"/>
<path d="M126.966 193.902H97.5218C95.1531 193.902 93.2328 195.943 93.2328 198.461V207.764C93.2328 210.282 95.1531 212.323 97.5218 212.323H126.966C129.334 212.323 131.255 210.282 131.255 207.764V198.461C131.255 195.943 129.334 193.902 126.966 193.902Z" fill="#87A2FB"/>
<path d="M97.2486 212.332V213.934C97.2486 215.254 98.5982 216.328 100.254 216.328H124.266C125.922 216.328 127.272 215.254 127.272 213.934V212.332H97.2486Z" fill="#87A2FB"/>
<path opacity="0.3" d="M97.2486 212.332V213.934C97.2486 215.254 98.5982 216.328 100.254 216.328H124.266C125.922 216.328 127.272 215.254 127.272 213.934V212.332H97.2486Z" fill="white"/>
</svg>
