<svg width="280" height="208" viewBox="0 0 280 208" fill="none" xmlns="http://www.w3.org/2000/svg">
<path d="M280 182.787H0V182.927H280V182.787Z" fill="#EBEBEB"/>
<path d="M251.944 191.77H233.397V191.91H251.944V191.77Z" fill="#EBEBEB"/>
<path d="M185.483 193.289H180.617V193.429H185.483V193.289Z" fill="#EBEBEB"/>
<path d="M232.837 186.589H222.09V186.729H232.837V186.589Z" fill="#EBEBEB"/>
<path d="M53.564 187.527H29.3776V187.667H53.564V187.527Z" fill="#EBEBEB"/>
<path d="M62.0984 187.527H58.5536V187.667H62.0984V187.527Z" fill="#EBEBEB"/>
<path d="M126.084 189.883H73.6232V190.023H126.084V189.883Z" fill="#EBEBEB"/>
<path d="M132.72 157.887H24.5896C23.7425 157.886 22.9306 157.549 22.3322 156.951C21.7337 156.354 21.3976 155.544 21.3976 154.699V3.15997C21.405 2.32031 21.7443 1.51745 22.342 0.925782C22.9397 0.334119 23.7473 0.0014384 24.5896 0H132.72C133.568 0 134.381 0.335866 134.981 0.933711C135.581 1.53156 135.918 2.34241 135.918 3.18789V154.699C135.918 155.545 135.581 156.355 134.981 156.953C134.381 157.551 133.568 157.887 132.72 157.887ZM24.5896 0.11166C23.7796 0.113139 23.0034 0.434952 22.4312 1.00646C21.859 1.57797 21.5376 2.35248 21.5376 3.15997V154.699C21.5376 155.507 21.859 156.281 22.4312 156.853C23.0034 157.424 23.7796 157.746 24.5896 157.747H132.72C133.53 157.746 134.307 157.424 134.88 156.853C135.453 156.282 135.776 155.507 135.778 154.699V3.15997C135.776 2.35196 135.453 1.57747 134.88 1.00612C134.307 0.43477 133.53 0.113136 132.72 0.11166H24.5896Z" fill="#EBEBEB"/>
<path d="M253.854 157.887H145.718C144.87 157.886 144.058 157.549 143.458 156.952C142.859 156.354 142.522 155.544 142.52 154.699V3.15997C142.529 2.3198 142.869 1.51694 143.468 0.925433C144.067 0.333924 144.875 0.00142271 145.718 0H253.854C254.695 0.00290567 255.501 0.336235 256.098 0.927742C256.694 1.51925 257.033 2.32127 257.04 3.15997V154.699C257.04 155.543 256.705 156.352 256.107 156.949C255.51 157.547 254.7 157.884 253.854 157.887ZM145.718 0.11166C144.907 0.113136 144.13 0.43477 143.557 1.00612C142.984 1.57747 142.661 2.35196 142.66 3.15997V154.699C142.661 155.507 142.984 156.282 143.557 156.853C144.13 157.424 144.907 157.746 145.718 157.747H253.854C254.664 157.746 255.441 157.424 256.014 156.853C256.587 156.282 256.91 155.507 256.911 154.699V3.15997C256.91 2.35196 256.587 1.57747 256.014 1.00612C255.441 0.43477 254.664 0.113136 253.854 0.11166H145.718Z" fill="#EBEBEB"/>
<path d="M162.226 66.4709L239.383 66.4709V16.0956L162.226 16.0956V66.4709Z" fill="#E6E6E6"/>
<path d="M159.869 66.4709L238.28 66.4709V16.0956L159.869 16.0956V66.4709Z" fill="#F0F0F0"/>
<path d="M162.226 76.3535L239.383 76.3535V66.466L162.226 66.466V76.3535Z" fill="#E6E6E6"/>
<path d="M155.954 76.3535L234.366 76.3535V66.466L155.954 66.466V76.3535Z" fill="#F0F0F0"/>
<path d="M234.987 63.1885V19.3843L163.167 19.3843V63.1885L234.987 63.1885Z" fill="#FAFAFA"/>
<path d="M218.792 63.1829L209.619 19.3843H195.306L204.478 63.1829H218.792Z" fill="white"/>
<path d="M233.464 59.9169C233.495 59.9169 233.526 59.9106 233.555 59.8985C233.584 59.8864 233.611 59.8686 233.632 59.8462C233.654 59.8239 233.672 59.7974 233.683 59.7683C233.695 59.7392 233.7 59.7081 233.699 59.6768V21.5226C233.699 21.4605 233.675 21.4008 233.63 21.3568C233.586 21.3129 233.526 21.2882 233.464 21.2882C233.433 21.2874 233.402 21.2929 233.373 21.3044C233.344 21.316 233.318 21.3332 233.296 21.3551C233.274 21.3771 233.257 21.4032 233.245 21.432C233.234 21.4608 233.228 21.4916 233.229 21.5226V59.6768C233.228 59.7081 233.234 59.7392 233.245 59.7683C233.257 59.7974 233.274 59.8239 233.296 59.8462C233.318 59.8686 233.344 59.8864 233.373 59.8985C233.402 59.9106 233.433 59.9169 233.464 59.9169Z" fill="#F0F0F0"/>
<path d="M201.404 63.1829L192.231 19.3843H186.648L195.826 63.1829H201.404Z" fill="white"/>
<path d="M163.587 63.1884V19.3843H163.167V63.1884H163.587Z" fill="#E6E6E6"/>
<path opacity="0.6" d="M159.096 24.3362H236.253L236.555 20.657H159.398L159.096 24.3362Z" fill="#EBEBEB"/>
<path opacity="0.6" d="M159.096 30.3662H236.253L236.555 26.6926H159.398L159.096 30.3662Z" fill="#EBEBEB"/>
<path opacity="0.6" d="M159.096 36.395H236.253L236.555 32.7214H159.398L159.096 36.395Z" fill="#EBEBEB"/>
<path opacity="0.6" d="M159.096 42.4307H236.253L236.555 38.7515H159.398L159.096 42.4307Z" fill="#EBEBEB"/>
<path opacity="0.6" d="M159.096 48.4607H236.253L236.555 44.7815H159.398L159.096 48.4607Z" fill="#EBEBEB"/>
<path opacity="0.6" d="M159.096 54.49H236.253L236.555 50.8108H159.398L159.096 54.49Z" fill="#EBEBEB"/>
<path d="M228.306 146.152H212.128V149.334H228.306V146.152Z" fill="#E6E6E6"/>
<path d="M181.614 182.787H184.598V109.611H181.614V182.787Z" fill="#E6E6E6"/>
<path d="M171.265 149.335H212.122V146.152H171.265V149.335Z" fill="#F5F5F5"/>
<path d="M228.306 163.554H212.128V166.736H228.306V163.554Z" fill="#E6E6E6"/>
<path d="M171.265 166.73H212.122V163.548H171.265V166.73Z" fill="#F5F5F5"/>
<path d="M228.306 111.354H212.128V114.536H228.306V111.354Z" fill="#E6E6E6"/>
<path d="M171.265 114.53H212.122V111.347H171.265V114.53Z" fill="#F5F5F5"/>
<path d="M228.306 128.749H212.128V131.931H228.306V128.749Z" fill="#E6E6E6"/>
<path d="M171.265 131.932H212.122V128.749H171.265V131.932Z" fill="#F5F5F5"/>
<path d="M222.477 182.787H225.462V109.611H222.477V182.787Z" fill="#E6E6E6"/>
<path d="M209.138 182.787H212.122V109.611H209.138V182.787Z" fill="#F5F5F5"/>
<path d="M171.265 182.787H174.25V109.611H171.265V182.787Z" fill="#F5F5F5"/>
<path d="M36.6128 182.787H67.1776L67.1776 123.669H36.6128L36.6128 182.787Z" fill="#E6E6E6"/>
<path d="M44.772 182.788H36.6072V174.625H53.3288L44.772 182.788Z" fill="#FAFAFA"/>
<path d="M119.941 182.787H150.506V123.669H119.941V182.787Z" fill="#E6E6E6"/>
<path d="M36.6128 179.974H127.07V123.664L36.6128 123.664V179.974Z" fill="#FAFAFA"/>
<path d="M118.905 182.788H127.064V174.625H110.348L118.905 182.788Z" fill="#FAFAFA"/>
<path d="M42.9408 158.741H120.736V144.65H42.9408V158.741Z" fill="#F0F0F0"/>
<path d="M42.9408 175.842H120.736V161.751H42.9408V175.842Z" fill="#F0F0F0"/>
<path d="M105.952 146.157H57.7304C57.0502 146.157 56.3978 145.888 55.9168 145.409C55.4359 144.929 55.1656 144.279 55.1656 143.6V143.427H108.511V143.6C108.511 144.278 108.242 144.927 107.762 145.407C107.282 145.886 106.631 146.156 105.952 146.157Z" fill="#FAFAFA"/>
<path d="M42.9408 141.635H120.736V127.544L42.9408 127.544V141.635Z" fill="#F0F0F0"/>
<path d="M105.952 129.051H57.7304C57.0502 129.051 56.3978 128.782 55.9168 128.302C55.4359 127.823 55.1656 127.172 55.1656 126.494V126.321H108.511V126.494C108.511 127.171 108.242 127.821 107.762 128.3C107.282 128.78 106.631 129.05 105.952 129.051Z" fill="#FAFAFA"/>
<path d="M105.952 163.263H57.7304C57.0502 163.263 56.3978 162.994 55.9168 162.514C55.4359 162.035 55.1656 161.384 55.1656 160.706V160.533H108.511V160.706C108.511 161.383 108.242 162.033 107.762 162.512C107.282 162.992 106.631 163.262 105.952 163.263Z" fill="#FAFAFA"/>
<path d="M41.4792 66.4709L118.636 66.4709V16.0956L41.4792 16.0956V66.4709Z" fill="#E6E6E6"/>
<path d="M39.1271 66.4709L117.538 66.4709V16.0956L39.1271 16.0956V66.4709Z" fill="#F0F0F0"/>
<path d="M41.4792 76.3535L118.636 76.3535V66.466L41.4792 66.466V76.3535Z" fill="#E6E6E6"/>
<path d="M35.2016 76.3535L113.613 76.3535V66.466L35.2016 66.466V76.3535Z" fill="#F0F0F0"/>
<path d="M114.24 63.1884V19.3843L42.42 19.3843V63.1884L114.24 63.1884Z" fill="#FAFAFA"/>
<path d="M98.0449 63.1829L88.8721 19.3843H74.5585L83.7313 63.1829H98.0449Z" fill="white"/>
<path d="M112.711 59.9169C112.743 59.9169 112.774 59.9106 112.803 59.8985C112.832 59.8864 112.858 59.8686 112.88 59.8462C112.902 59.8239 112.919 59.7974 112.93 59.7683C112.942 59.7392 112.947 59.7081 112.947 59.6768V21.5226C112.947 21.4916 112.942 21.4608 112.93 21.432C112.919 21.4032 112.901 21.3771 112.879 21.3551C112.857 21.3332 112.831 21.316 112.802 21.3044C112.773 21.2929 112.742 21.2874 112.711 21.2882C112.649 21.2882 112.589 21.3129 112.545 21.3568C112.501 21.4008 112.476 21.4605 112.476 21.5226V59.6768C112.475 59.7081 112.481 59.7392 112.492 59.7683C112.504 59.7974 112.521 59.8239 112.543 59.8462C112.565 59.8686 112.591 59.8864 112.62 59.8985C112.649 59.9106 112.68 59.9169 112.711 59.9169Z" fill="#F0F0F0"/>
<path d="M80.6568 63.1829L71.484 19.3843H65.9008L75.0736 63.1829H80.6568Z" fill="white"/>
<path d="M42.84 63.1884V19.3843H42.4199V63.1884H42.84Z" fill="#E6E6E6"/>
<path opacity="0.6" d="M38.3433 24.3362H115.5L115.802 20.657H38.6457L38.3433 24.3362Z" fill="#EBEBEB"/>
<path opacity="0.6" d="M38.3433 26.4128H115.5L115.802 22.7336H38.6457L38.3433 26.4128Z" fill="#EBEBEB"/>
<path opacity="0.6" d="M38.3433 28.4842H115.5L115.802 24.8105H38.6457L38.3433 28.4842Z" fill="#EBEBEB"/>
<path opacity="0.6" d="M38.3433 30.5613H115.5L115.802 26.8821H38.6457L38.3433 30.5613Z" fill="#EBEBEB"/>
<path opacity="0.6" d="M38.3433 32.6326H115.5L115.802 28.959H38.6457L38.3433 32.6326Z" fill="#EBEBEB"/>
<path opacity="0.6" d="M38.3433 34.71H115.5L115.802 31.0308H38.6457L38.3433 34.71Z" fill="#EBEBEB"/>
<path d="M53.7712 121.86H56.4368L56.4368 92.2195H53.7712V121.86Z" fill="#F5F5F5"/>
<path d="M54.107 121.843H54.8632L54.8632 92.2029H54.107L54.107 121.843Z" fill="#FAFAFA"/>
<path d="M55.1768 121.843H55.4736L55.4736 92.2029H55.1768L55.1768 121.843Z" fill="#FAFAFA"/>
<path d="M64.9768 123.669H45.2424C45.2424 123.012 45.5044 122.381 45.9707 121.916C46.4369 121.451 47.0694 121.19 47.7288 121.19H62.4848C63.1442 121.19 63.7767 121.451 64.243 121.916C64.7093 122.381 64.9712 123.012 64.9712 123.669H64.9768Z" fill="#F0F0F0"/>
<path d="M50.3105 110.622C50.5136 110.62 50.7079 110.539 50.8515 110.396C50.9951 110.253 51.0764 110.059 51.0779 109.857V90.4446C51.0779 90.2417 50.997 90.0472 50.8531 89.9037C50.7092 89.7603 50.5141 89.6797 50.3105 89.6797C50.2093 89.679 50.1089 89.6982 50.0152 89.7363C49.9214 89.7744 49.8362 89.8306 49.7643 89.9017C49.6925 89.9728 49.6355 90.0574 49.5965 90.1506C49.5576 90.2437 49.5376 90.3437 49.5376 90.4446V109.879C49.5449 110.078 49.6295 110.267 49.7737 110.406C49.9178 110.544 50.1103 110.622 50.3105 110.622Z" fill="#F0F0F0"/>
<path d="M43.1592 99.2665H67.0432L64.2936 82.6292H45.9088L43.1592 99.2665Z" fill="#E0E0E0"/>
<path d="M140 208C199.966 208 248.578 205.171 248.578 201.68C248.578 198.19 199.966 195.36 140 195.36C80.0338 195.36 31.4216 198.19 31.4216 201.68C31.4216 205.171 80.0338 208 140 208Z" fill="#F5F5F5"/>
<path d="M58.3065 82.2702L57.7478 82.3103L58.4919 92.6066L59.0505 92.5665L58.3065 82.2702Z" fill="#407BFF"/>
<path d="M59.4299 97.8818L58.8712 97.9219L59.1512 101.798L59.7099 101.757L59.4299 97.8818Z" fill="#407BFF"/>
<path d="M189.118 145.247H69.188C67.853 145.223 66.5742 144.708 65.5981 143.799C64.6219 142.891 64.0176 141.655 63.9016 140.329L58.0104 58.7444C57.9556 58.1152 58.0336 57.4816 58.2394 56.8843C58.4452 56.287 58.7742 55.7393 59.2052 55.2764C59.6362 54.8136 60.1597 54.4459 60.7419 54.197C61.3241 53.9481 61.9522 53.8236 62.5856 53.8314H182.515C183.849 53.8552 185.127 54.3702 186.103 55.2773C187.079 56.1844 187.684 57.4193 187.802 58.7444L193.693 140.329C193.748 140.958 193.67 141.592 193.464 142.19C193.258 142.787 192.929 143.335 192.498 143.799C192.067 144.262 191.544 144.63 190.962 144.88C190.379 145.129 189.751 145.254 189.118 145.247Z" fill="#407BFF"/>
<path d="M189.577 145.247H69.6471C68.3121 145.223 67.0333 144.708 66.0572 143.799C65.081 142.891 64.4767 141.655 64.3607 140.329L58.4695 58.7444C58.4147 58.1152 58.4927 57.4816 58.6985 56.8843C58.9043 56.287 59.2333 55.7393 59.6643 55.2764C60.0953 54.8136 60.6188 54.4459 61.201 54.197C61.7832 53.9481 62.4113 53.8236 63.0447 53.8314H182.974C184.308 53.8552 185.587 54.3702 186.563 55.2773C187.539 56.1844 188.143 57.4193 188.261 58.7444L194.152 140.329C194.208 140.958 194.13 141.593 193.925 142.191C193.719 142.789 193.39 143.337 192.959 143.8C192.528 144.264 192.005 144.632 191.422 144.881C190.839 145.131 190.211 145.255 189.577 145.247Z" fill="#407BFF"/>
<path opacity="0.5" d="M189.577 145.247H69.6471C68.3121 145.223 67.0333 144.708 66.0572 143.799C65.081 142.891 64.4767 141.655 64.3607 140.329L58.4695 58.7444C58.4147 58.1152 58.4927 57.4816 58.6985 56.8843C58.9043 56.287 59.2333 55.7393 59.6643 55.2764C60.0953 54.8136 60.6188 54.4459 61.201 54.197C61.7832 53.9481 62.4113 53.8236 63.0447 53.8314H182.974C184.308 53.8552 185.587 54.3702 186.563 55.2773C187.539 56.1844 188.143 57.4193 188.261 58.7444L194.152 140.329C194.208 140.958 194.13 141.593 193.925 142.191C193.719 142.789 193.39 143.337 192.959 143.8C192.528 144.264 192.005 144.632 191.422 144.881C190.839 145.131 190.211 145.255 189.577 145.247Z" fill="white"/>
<path d="M183.154 56.2881H63.2239H62.8207C59.7575 56.5393 60.3847 61.19 63.4759 61.19H183.607C186.704 61.19 186.659 56.5393 183.557 56.2881H183.154Z" fill="#407BFF"/>
<path d="M66.3487 58.7444C66.3605 58.8883 66.3418 59.0331 66.294 59.1694C66.2462 59.3057 66.1702 59.4305 66.071 59.5357C65.9718 59.641 65.8515 59.7243 65.718 59.7803C65.5845 59.8363 65.4407 59.8638 65.2959 59.861C64.9915 59.8567 64.6995 59.7403 64.4762 59.5341C64.2528 59.3279 64.1139 59.0466 64.0863 58.7444C64.0746 58.6009 64.0931 58.4566 64.1406 58.3207C64.1881 58.1848 64.2635 58.0603 64.3621 57.9551C64.4607 57.85 64.5803 57.7666 64.7131 57.7102C64.846 57.6538 64.9891 57.6258 65.1335 57.6278C65.4388 57.6307 65.7322 57.7465 65.9567 57.9528C66.1813 58.1591 66.321 58.4412 66.3487 58.7444Z" fill="#FAFAFA"/>
<path d="M70.196 58.7444C70.2078 58.8883 70.1891 59.0331 70.1413 59.1694C70.0935 59.3057 70.0175 59.4305 69.9183 59.5357C69.8191 59.641 69.6988 59.7243 69.5653 59.7803C69.4318 59.8363 69.288 59.8638 69.1432 59.861C68.8388 59.8567 68.5468 59.7403 68.3235 59.5341C68.1001 59.3279 67.9612 59.0466 67.9336 58.7444C67.9219 58.6009 67.9404 58.4566 67.9879 58.3207C68.0354 58.1848 68.1108 58.0603 68.2094 57.9551C68.308 57.85 68.4276 57.7666 68.5604 57.7102C68.6933 57.6538 68.8364 57.6258 68.9808 57.6278C69.2861 57.6307 69.5795 57.7465 69.804 57.9528C70.0286 58.1591 70.1683 58.4412 70.196 58.7444Z" fill="#FAFAFA"/>
<path d="M74.0376 58.7445C74.0493 58.8879 74.0308 59.0323 73.9833 59.1682C73.9358 59.3041 73.8603 59.4286 73.7617 59.5337C73.6631 59.6389 73.5436 59.7223 73.4108 59.7787C73.2779 59.835 73.1347 59.8631 72.9904 59.8611C72.6856 59.8581 72.393 59.742 72.1693 59.5356C71.9457 59.3292 71.8072 59.0472 71.7808 58.7445C71.7682 58.6008 71.786 58.4562 71.8332 58.3199C71.8804 58.1836 71.9558 58.0587 72.0546 57.9534C72.1534 57.848 72.2733 57.7646 72.4065 57.7086C72.5398 57.6525 72.6834 57.625 72.828 57.6279C73.1323 57.6322 73.4244 57.7486 73.6477 57.9548C73.8711 58.161 74.0099 58.4423 74.0376 58.7445Z" fill="#FAFAFA"/>
<path d="M186.396 137.107H71.68C71.1954 137.099 70.731 136.912 70.3771 136.582C70.0232 136.252 69.805 135.802 69.7648 135.321L64.9208 68.2298C64.8992 67.9996 64.927 67.7674 65.0024 67.5487C65.0777 67.33 65.1988 67.1298 65.3577 66.9614C65.5166 66.7929 65.7096 66.6601 65.9239 66.5718C66.1382 66.4834 66.369 66.4415 66.6008 66.4488H181.345C181.829 66.4555 182.293 66.6415 182.647 66.9707C183.001 67.3 183.22 67.7488 183.26 68.2298L188.11 135.321C188.131 135.554 188.101 135.789 188.024 136.01C187.946 136.231 187.822 136.433 187.66 136.602C187.497 136.771 187.301 136.904 187.083 136.991C186.865 137.078 186.631 137.118 186.396 137.107Z" fill="white"/>
<path d="M138.057 111.549L136.186 85.6882L130.53 82.2937H114.957L117.074 111.549H138.057Z" fill="white"/>
<path d="M138.057 111.816H117.074C117.004 111.818 116.937 111.793 116.886 111.746C116.834 111.699 116.803 111.634 116.799 111.565L114.688 82.3101C114.685 82.2734 114.69 82.2365 114.703 82.2019C114.715 82.1672 114.735 82.1356 114.761 82.1091C114.785 82.0815 114.816 82.0594 114.849 82.044C114.883 82.0286 114.92 82.0204 114.957 82.0198H130.53C130.579 82.0215 130.627 82.0349 130.67 82.0589L136.326 85.4533C136.364 85.4751 136.397 85.5058 136.42 85.5427C136.443 85.5797 136.457 85.6219 136.461 85.6655L138.32 111.526C138.324 111.564 138.319 111.602 138.307 111.637C138.294 111.673 138.274 111.706 138.247 111.732C138.223 111.759 138.193 111.779 138.161 111.794C138.128 111.808 138.093 111.816 138.057 111.816ZM117.337 111.258H137.76L135.923 85.8274L130.48 82.5613H115.248L117.337 111.258Z" fill="#407BFF"/>
<path d="M136.186 85.6882L130.53 82.2937L132.608 86.7936L136.186 85.6882Z" fill="#EBEBEB"/>
<path d="M132.608 87.0612C132.556 87.0609 132.506 87.0461 132.462 87.0184C132.419 86.9908 132.384 86.9514 132.361 86.9049L130.284 82.405C130.26 82.3521 130.253 82.2931 130.264 82.236C130.275 82.179 130.303 82.1268 130.345 82.0868C130.39 82.0489 130.445 82.0258 130.503 82.0208C130.562 82.0158 130.62 82.0291 130.67 82.0588L136.326 85.4533C136.372 85.4806 136.409 85.5203 136.433 85.5678C136.456 85.6153 136.466 85.6685 136.461 85.7213C136.453 85.7727 136.432 85.821 136.398 85.8605C136.364 85.9 136.32 85.9292 136.27 85.9446L132.686 87.0612H132.608ZM131.146 82.9744L132.753 86.4638L135.553 85.6096L131.146 82.9744Z" fill="#407BFF"/>
<path d="M123.76 95.4687C123.768 95.6204 123.746 95.7722 123.693 95.9149C123.641 96.0575 123.559 96.188 123.455 96.2983C123.35 96.4085 123.223 96.4963 123.083 96.5562C122.943 96.6161 122.792 96.6469 122.64 96.6467C122.32 96.641 122.014 96.5175 121.78 96.2999C121.547 96.0824 121.402 95.7863 121.374 95.4687C121.36 95.3154 121.378 95.1608 121.429 95.0151C121.479 94.8695 121.56 94.7363 121.666 94.6243C121.772 94.5123 121.901 94.4241 122.043 94.3656C122.186 94.3071 122.34 94.2797 122.494 94.2851C122.815 94.2922 123.121 94.4169 123.354 94.6354C123.588 94.8538 123.732 95.1506 123.76 95.4687Z" fill="#407BFF"/>
<path d="M131.432 95.4695C131.446 95.6224 131.426 95.7764 131.376 95.9213C131.325 96.0662 131.244 96.1988 131.138 96.3102C131.032 96.4215 130.904 96.5092 130.762 96.5674C130.619 96.6255 130.466 96.6528 130.312 96.6475C129.992 96.6419 129.685 96.5186 129.45 96.3011C129.216 96.0837 129.07 95.7875 129.041 95.4695C129.032 95.3173 129.054 95.1649 129.106 95.0216C129.158 94.8783 129.239 94.7471 129.344 94.6363C129.449 94.5254 129.576 94.4371 129.716 94.3768C129.857 94.3166 130.008 94.2856 130.161 94.2859C130.482 94.2904 130.791 94.4141 131.026 94.6329C131.261 94.8517 131.406 95.15 131.432 95.4695Z" fill="#407BFF"/>
<path d="M133.605 103.141C133.537 103.14 133.471 103.113 133.422 103.067C133.372 103.02 133.342 102.957 133.336 102.89C133.196 100.986 130.206 99.4393 126.672 99.4393C124.326 99.4393 122.22 100.137 121.178 101.254C120.964 101.459 120.797 101.708 120.687 101.984C120.577 102.259 120.527 102.554 120.54 102.85C120.543 102.887 120.538 102.924 120.526 102.959C120.514 102.994 120.496 103.026 120.472 103.054C120.423 103.11 120.354 103.144 120.28 103.149C120.205 103.154 120.132 103.13 120.076 103.081C120.02 103.033 119.985 102.964 119.98 102.89C119.963 102.519 120.024 102.15 120.159 101.805C120.294 101.46 120.5 101.146 120.764 100.885C121.884 99.6626 124.163 98.8977 126.655 98.8977C130.536 98.8977 133.7 100.634 133.857 102.85C133.859 102.886 133.854 102.921 133.843 102.954C133.831 102.988 133.814 103.019 133.79 103.045C133.767 103.071 133.738 103.093 133.706 103.109C133.675 103.124 133.64 103.133 133.605 103.135V103.141Z" fill="#407BFF"/>
<path d="M119.375 93.0795C119.307 93.0781 119.241 93.0524 119.19 93.0069C119.139 92.9557 119.111 92.8864 119.111 92.8143C119.111 92.7421 119.139 92.6729 119.19 92.6217L120.383 91.3432C120.435 91.2941 120.503 91.2666 120.574 91.2666C120.645 91.2666 120.713 91.2941 120.764 91.3432C120.789 91.3681 120.809 91.3977 120.823 91.4302C120.836 91.4628 120.843 91.4977 120.843 91.533C120.843 91.5683 120.836 91.6032 120.823 91.6358C120.809 91.6683 120.789 91.6979 120.764 91.7228L119.571 93.0013C119.546 93.0269 119.515 93.047 119.481 93.0604C119.448 93.0738 119.412 93.0803 119.375 93.0795Z" fill="#407BFF"/>
<path d="M133.045 93.0795C132.977 93.0763 132.912 93.0508 132.86 93.0069L131.488 91.7284C131.462 91.7034 131.441 91.6735 131.427 91.6404C131.413 91.6073 131.406 91.5717 131.406 91.5358C131.406 91.4999 131.413 91.4643 131.427 91.4312C131.441 91.3981 131.462 91.3682 131.488 91.3432C131.539 91.2941 131.607 91.2666 131.678 91.2666C131.749 91.2666 131.818 91.2941 131.869 91.3432L133.241 92.6217C133.266 92.6466 133.286 92.6762 133.3 92.7087C133.313 92.7413 133.32 92.7762 133.32 92.8115C133.32 92.8468 133.313 92.8817 133.3 92.9143C133.286 92.9468 133.266 92.9764 133.241 93.0013C133.188 93.0509 133.118 93.0788 133.045 93.0795Z" fill="#407BFF"/>
<path d="M113.266 117.327H114.531L116.357 119.75L116.183 117.327H117.46L117.774 121.704H116.48L114.666 119.297L114.839 121.704H113.562L113.266 117.327Z" fill="#407BFF"/>
<path d="M118.345 119.515C118.302 119.218 118.322 118.915 118.405 118.626C118.488 118.338 118.632 118.07 118.826 117.841C119.039 117.632 119.294 117.471 119.574 117.368C119.854 117.265 120.153 117.222 120.45 117.243C121.081 117.209 121.701 117.419 122.181 117.829C122.62 118.265 122.875 118.853 122.892 119.471C122.938 119.897 122.881 120.328 122.724 120.727C122.579 121.048 122.336 121.316 122.03 121.492C121.662 121.688 121.248 121.783 120.831 121.765C120.403 121.779 119.977 121.699 119.582 121.531C119.237 121.366 118.946 121.106 118.742 120.783C118.502 120.402 118.365 119.965 118.345 119.515ZM119.706 119.515C119.7 119.858 119.811 120.192 120.019 120.465C120.107 120.561 120.214 120.636 120.334 120.687C120.454 120.737 120.584 120.76 120.714 120.755C120.838 120.764 120.962 120.742 121.076 120.693C121.19 120.643 121.291 120.567 121.369 120.47C121.53 120.165 121.583 119.815 121.52 119.476C121.522 119.148 121.412 118.829 121.206 118.572C121.117 118.478 121.008 118.404 120.887 118.354C120.766 118.305 120.637 118.282 120.506 118.287C120.385 118.282 120.263 118.306 120.152 118.356C120.041 118.406 119.944 118.482 119.868 118.578C119.704 118.865 119.647 119.201 119.706 119.527V119.515Z" fill="#407BFF"/>
<path d="M125.524 117.326H127.54C127.872 117.316 128.203 117.371 128.514 117.488C128.76 117.591 128.979 117.75 129.153 117.952C129.329 118.157 129.464 118.394 129.55 118.65C129.641 118.925 129.698 119.21 129.718 119.498C129.761 119.863 129.733 120.233 129.634 120.587C129.557 120.832 129.421 121.055 129.237 121.235C129.083 121.396 128.89 121.516 128.677 121.581C128.416 121.656 128.147 121.697 127.876 121.704H125.866L125.524 117.326ZM126.952 118.32L127.126 120.71H127.456C127.66 120.723 127.865 120.691 128.055 120.615C128.181 120.542 128.273 120.424 128.313 120.285C128.377 120.038 128.392 119.78 128.358 119.526C128.368 119.186 128.264 118.851 128.061 118.577C127.957 118.483 127.834 118.412 127.701 118.368C127.568 118.324 127.428 118.307 127.288 118.32H126.952Z" fill="#407BFF"/>
<path d="M132.972 120.978H131.432L131.27 121.704H129.886L131.219 117.327H132.72L134.686 121.704H133.263L132.972 120.978ZM132.619 120.034L132.026 118.46L131.656 120.034H132.619Z" fill="#407BFF"/>
<path d="M134.047 117.327H138.169L138.247 118.41H136.864L137.099 121.704H135.744L135.509 118.41H134.126L134.047 117.327Z" fill="#407BFF"/>
<path d="M141.327 120.978H139.787L139.625 121.704H138.241L139.574 117.327H141.053L143.013 121.704H141.596L141.327 120.978ZM140.974 120.034L140.375 118.46L140 120.034H140.974Z" fill="#407BFF"/>
<path d="M198.066 65.9238C198.565 65.6726 199.186 65.3655 199.713 65.0473C200.239 64.729 200.833 64.422 201.393 64.087C202.485 63.4114 203.594 62.7471 204.641 62.0101C206.744 60.5754 208.716 58.9574 210.532 57.1752C210.762 56.9631 210.963 56.7286 211.182 56.4997L211.501 56.1591L211.658 55.9916L211.736 55.9023C211.658 56.0531 211.736 56.0084 211.736 55.8632C211.785 55.6639 211.813 55.4599 211.82 55.2547C211.807 54.0676 211.67 52.885 211.411 51.7262C210.913 49.2251 210.157 46.6457 209.412 44.1222L211.585 43.1731C212.956 45.5942 214.102 48.1359 215.006 50.766C215.515 52.1873 215.838 53.6677 215.97 55.171C216.004 55.6383 215.989 56.108 215.925 56.5723C215.842 57.2288 215.608 57.8573 215.242 58.4091L215.146 58.5375L215.074 58.6268L214.99 58.7329L214.816 58.9451L214.469 59.3638C214.239 59.6373 214.015 59.9221 213.769 60.1845C211.854 62.3032 209.717 64.2122 207.396 65.8791C206.276 66.7054 205.089 67.4982 203.874 68.2184C203.274 68.5813 202.664 68.9274 202.042 69.268C201.421 69.6086 200.816 69.9212 200.099 70.2562L198.066 65.9238Z" fill="#FFB573"/>
<path d="M193.082 197.181C193.502 197.171 193.919 197.115 194.326 197.014C194.346 197.007 194.365 196.996 194.38 196.98C194.394 196.965 194.405 196.945 194.41 196.924C194.412 196.903 194.409 196.881 194.4 196.861C194.391 196.842 194.377 196.825 194.359 196.813C194.197 196.706 192.774 195.79 192.226 196.036C192.165 196.064 192.113 196.108 192.074 196.163C192.036 196.218 192.013 196.282 192.007 196.349C191.985 196.454 191.991 196.564 192.023 196.666C192.055 196.769 192.114 196.862 192.192 196.936C192.449 197.122 192.766 197.209 193.082 197.181ZM194.006 196.857C193.194 197.019 192.578 196.991 192.326 196.774C192.276 196.722 192.239 196.659 192.22 196.589C192.2 196.52 192.198 196.447 192.214 196.377C192.216 196.347 192.226 196.319 192.243 196.294C192.26 196.27 192.283 196.25 192.31 196.237C192.606 196.109 193.43 196.522 194.006 196.857Z" fill="#407BFF"/>
<path d="M194.32 197.013H194.376C194.393 197.003 194.406 196.989 194.416 196.972C194.426 196.956 194.431 196.937 194.432 196.918C194.432 196.856 194.432 195.511 193.917 195.064C193.855 195.005 193.781 194.96 193.699 194.934C193.618 194.908 193.531 194.901 193.446 194.913C193.358 194.914 193.273 194.945 193.204 195.001C193.136 195.057 193.089 195.134 193.071 195.22C192.965 195.779 193.816 196.756 194.264 197.013C194.282 197.018 194.302 197.018 194.32 197.013ZM193.519 195.12C193.61 195.12 193.698 195.154 193.766 195.215C194.061 195.649 194.214 196.164 194.203 196.689C193.754 196.331 193.222 195.572 193.29 195.254C193.29 195.204 193.329 195.137 193.469 195.12H193.519Z" fill="#407BFF"/>
<path d="M193.883 51.9604C193.323 54.7519 192.203 60.3349 194.135 62.2052C194.135 62.2052 193.374 64.9967 188.205 64.9967C182.515 64.9967 185.489 62.2052 185.489 62.2052C188.591 61.4683 188.507 59.1737 187.97 57.0131L193.883 51.9604Z" fill="#FFB573"/>
<path d="M184.397 63.3218C183.506 63.4447 184.268 61.1389 184.626 60.8988C185.466 60.3405 196.308 59.5645 196.235 60.8988C196.19 61.4571 195.922 62.5737 195.451 62.9422C194.981 63.3107 192.192 62.1606 184.397 63.3218Z" fill="#263238"/>
<path d="M186.166 62.5296C185.455 62.7697 185.522 60.4471 185.763 60.168C186.323 59.5204 195.098 57.276 195.356 58.5433C195.457 59.1016 195.507 60.2182 195.205 60.6146C194.902 61.011 192.326 60.3578 186.166 62.5296Z" fill="#263238"/>
<path d="M182.902 46.9595C182.866 46.9611 182.831 46.9543 182.799 46.9397C182.767 46.9252 182.739 46.9032 182.717 46.8757C182.546 46.6559 182.325 46.4792 182.074 46.3598C181.822 46.2405 181.545 46.1818 181.266 46.1886C181.237 46.1925 181.208 46.1905 181.179 46.1827C181.151 46.1748 181.124 46.1614 181.101 46.1431C181.078 46.1249 181.059 46.1022 181.045 46.0764C181.031 46.0506 181.023 46.0223 181.02 45.9931C181.015 45.9355 181.033 45.8784 181.069 45.8336C181.106 45.7888 181.158 45.7599 181.216 45.7528C181.568 45.7349 181.92 45.8022 182.241 45.9491C182.562 46.096 182.842 46.3181 183.058 46.5964C183.096 46.6418 183.114 46.7 183.109 46.7586C183.103 46.8171 183.075 46.8713 183.03 46.9093C182.992 46.9365 182.948 46.9538 182.902 46.9595Z" fill="#263238"/>
<path d="M181.815 49.6882C181.561 50.5789 181.184 51.4301 180.695 52.2173C180.901 52.3351 181.129 52.4065 181.365 52.4268C181.602 52.4471 181.839 52.4156 182.062 52.3346L181.815 49.6882Z" fill="#FF5652"/>
<path d="M182.09 49.0131C182.129 49.3874 181.955 49.7114 181.709 49.7338C181.462 49.7561 181.233 49.4768 181.199 49.0969C181.166 48.717 181.334 48.3986 181.574 48.3763C181.815 48.3539 182.051 48.6332 182.09 49.0131Z" fill="#263238"/>
<path d="M181.686 48.389L180.757 48.2153C180.757 48.2153 181.289 48.8763 181.686 48.389Z" fill="#263238"/>
<path d="M199.752 196.906H195.059L195.429 186.075H200.122L199.752 196.906Z" fill="#FFB573"/>
<path d="M194.69 196.365H199.959C200.05 196.363 200.139 196.394 200.208 196.453C200.277 196.511 200.322 196.593 200.334 196.683L200.934 200.837C200.945 200.942 200.935 201.048 200.903 201.149C200.87 201.25 200.817 201.342 200.746 201.421C200.675 201.499 200.588 201.562 200.491 201.605C200.394 201.648 200.289 201.669 200.183 201.669C198.346 201.641 197.462 201.529 195.143 201.529C193.715 201.529 191.632 201.68 189.666 201.68C187.701 201.68 187.589 199.737 188.412 199.564C192.086 198.771 192.668 197.688 193.906 196.65C194.126 196.467 194.403 196.366 194.69 196.365Z" fill="#263238"/>
<g opacity="0.2">
<path d="M200.122 186.075H195.429L195.238 191.658H199.931L200.122 186.075Z" fill="black"/>
</g>
<path d="M181.087 68.6707C178.216 67.5576 175.403 66.2998 172.659 64.9022C169.825 63.5217 167.126 61.8826 164.595 60.0059C163.919 59.4779 163.279 58.9053 162.68 58.2919C162.523 58.1244 162.366 57.9681 162.215 57.7727C162.038 57.573 161.873 57.3623 161.722 57.1418C161.309 56.542 161.052 55.8496 160.972 55.1264C160.91 54.4407 161.004 53.75 161.246 53.1053C161.441 52.5872 161.706 52.0986 162.036 51.6537C162.577 50.9163 163.216 50.2552 163.934 49.6885C165.203 48.6812 166.573 47.8075 168.022 47.0813C168.717 46.7128 169.422 46.3834 170.139 46.0763C170.856 45.7693 171.562 45.479 172.329 45.2166L173.32 47.366C170.878 48.9013 168.347 50.593 166.488 52.48C166.072 52.9004 165.706 53.3668 165.396 53.8702C165.127 54.3112 165.133 54.6406 165.178 54.6127C165.222 54.5848 165.178 54.6127 165.256 54.6686L165.48 54.9086C165.564 55.0091 165.682 55.1096 165.788 55.2157C166.262 55.6509 166.766 56.0538 167.294 56.4216C168.45 57.2376 169.655 57.9834 170.901 58.6548C172.161 59.3583 173.46 60.0226 174.782 60.6591C177.425 61.9209 180.158 63.1324 182.84 64.2378L181.087 68.6707Z" fill="#FFB573"/>
<path d="M174.72 45.8647L175.493 44.1898L171.954 42.9895C171.954 42.9895 170.834 46.2891 172.161 47.8076C172.715 47.7206 173.24 47.4974 173.686 47.1583C174.133 46.8192 174.488 46.3746 174.72 45.8647Z" fill="#FFB573"/>
<path d="M175.476 40.5663L172.659 39.7512L171.954 42.967L175.476 44.1897V40.5663Z" fill="#FFB573"/>
<path d="M211.876 44.351L212.285 40.4429L208.656 41.3138C208.656 41.3138 208.6 44.9874 210.521 45.5681L211.876 44.351Z" fill="#FFB573"/>
<path d="M210.538 37.6907L208.169 38.7905L208.656 41.2861L212.285 40.4319L210.538 37.6907Z" fill="#FFB573"/>
<path d="M194.622 46.479C194.796 51.1185 194.964 53.0781 192.864 55.6742C189.7 59.5823 183.949 58.7728 182.392 54.2785C180.992 50.2364 180.947 43.3302 185.293 41.0523C186.248 40.5459 187.318 40.2912 188.399 40.3125C189.481 40.3338 190.54 40.6303 191.474 41.174C192.409 41.7176 193.189 42.4903 193.74 43.4187C194.291 44.3472 194.594 45.4006 194.622 46.479Z" fill="#FFB573"/>
<path d="M192.595 55.6678C197.165 53.697 200.166 49.5265 198.901 43.0614C197.686 36.8587 193.486 36.2446 191.75 37.5287C190.014 38.8128 185.685 36.8978 183.086 39.0752C178.606 42.8549 182.84 46.8914 185.058 49.3311C186.379 52.0445 188.115 57.594 192.595 55.6678Z" fill="#263238"/>
<path d="M190.697 41.9501C191.254 42.663 192.009 43.1976 192.868 43.4878C193.726 43.7781 194.651 43.8113 195.529 43.5834C196.406 43.3555 197.197 42.8764 197.805 42.2053C198.412 41.5342 198.809 40.7004 198.947 39.8069C199.084 38.9135 198.957 37.9994 198.579 37.1775C198.202 36.3557 197.591 35.662 196.822 35.1822C196.054 34.7024 195.162 34.4574 194.255 34.4775C193.349 34.4975 192.468 34.7818 191.722 35.2952C190.701 36.0424 190.019 37.1632 189.827 38.4111C189.635 39.6591 189.948 40.932 190.697 41.9501Z" fill="#407BFF"/>
<path d="M191.884 37.9644C191.229 34.2238 194.774 31.343 199.522 32.7332C204.271 34.1233 201.762 38.3162 200.782 41.666C199.802 45.0158 202.367 48.2092 203.431 45.6578C204.495 43.1064 202.703 42.308 202.703 42.308C202.703 42.308 207.743 43.6088 203.062 49.2756C198.38 54.9423 194.141 48.6838 195.289 44.9934C196.218 42.0288 192.506 41.4985 191.884 37.9644Z" fill="#263238"/>
<path d="M187.141 39.3766C184.973 38.26 181.306 37.3388 179.217 40.845C178.231 42.5199 178.612 44.7531 178.612 44.7531L184.99 45.1718L187.141 39.3766Z" fill="#263238"/>
<path d="M177.862 43.6476C177.824 43.6447 177.789 43.6274 177.764 43.5993C177.739 43.5712 177.726 43.5344 177.727 43.4969C177.727 43.4019 177.89 41.1576 179.25 39.7507C182.538 36.345 186.39 39.1924 187.488 40.1136C187.512 40.1385 187.525 40.1712 187.526 40.2054C187.527 40.2397 187.516 40.2731 187.493 40.2994C187.471 40.3256 187.44 40.3428 187.406 40.3476C187.372 40.3525 187.337 40.3447 187.309 40.3257C186.25 39.4213 182.566 36.7135 179.469 39.9405C178.181 41.2748 178.024 43.4913 178.024 43.5136C178.023 43.5335 178.019 43.553 178.01 43.5709C178.001 43.5888 177.989 43.6047 177.973 43.6174C177.958 43.63 177.94 43.6393 177.921 43.6445C177.901 43.6497 177.881 43.6508 177.862 43.6476Z" fill="#263238"/>
<path d="M185.836 49.1303C185.811 50.0086 185.485 50.8519 184.912 51.5198C184.139 52.4243 183.232 51.9776 183.047 50.9615C182.862 50.0627 183.047 48.505 184.022 47.9635C184.996 47.4219 185.847 48.1142 185.836 49.1303Z" fill="#FFB573"/>
<path d="M184.828 91.6279C184.828 91.6279 185.13 124.093 187.953 142.182C190.238 156.793 194.454 190.581 194.454 190.581H200.855C200.855 190.581 201.477 157.959 200.295 143.511C197.366 106.942 204.932 100.103 198.828 91.6279H184.828Z" fill="#263238"/>
<path opacity="0.1" d="M184.828 91.6279C184.828 91.6279 185.13 124.093 187.953 142.182C190.238 156.793 194.454 190.581 194.454 190.581H200.855C200.855 190.581 201.477 157.959 200.295 143.511C197.366 106.942 204.932 100.103 198.828 91.6279H184.828Z" fill="white"/>
<path opacity="0.3" d="M188.194 106.356C190.434 116.154 188.647 131.585 187.421 138.38C186.122 128.062 185.466 114.691 185.142 104.882C186.301 103.017 187.398 102.894 188.194 106.356Z" fill="black"/>
<path d="M193.581 190.704H201.729L202.154 187.857L193.536 187.566L193.581 190.704Z" fill="#407BFF"/>
<path d="M195.905 64.204C196.672 62.6855 200.794 61.7308 203.045 61.7364L204.725 69.1952C204.725 69.1952 200.245 75.8334 198.374 75.13C196.174 74.3204 194.264 67.4813 195.905 64.204Z" fill="#407BFF"/>
<path opacity="0.4" d="M195.905 64.204C196.672 62.6855 200.794 61.7308 203.045 61.7364L204.725 69.1952C204.725 69.1952 200.245 75.8334 198.374 75.13C196.174 74.3204 194.264 67.4813 195.905 64.204Z" fill="black"/>
<path d="M191.156 188.878C191.165 188.862 191.17 188.844 191.17 188.825C191.17 188.807 191.165 188.788 191.156 188.772C191.145 188.751 191.128 188.733 191.107 188.722C191.086 188.711 191.062 188.707 191.038 188.711C190.803 188.75 188.731 189.074 188.451 189.665C188.421 189.719 188.406 189.78 188.406 189.841C188.406 189.903 188.421 189.963 188.451 190.017C188.499 190.105 188.568 190.181 188.652 190.236C188.736 190.292 188.832 190.326 188.933 190.335C189.61 190.402 190.613 189.464 191.117 188.895L191.156 188.878ZM188.67 189.738C188.86 189.425 189.935 189.135 190.753 188.984C190.014 189.732 189.364 190.151 188.983 190.101C188.917 190.094 188.854 190.072 188.799 190.034C188.745 189.997 188.7 189.947 188.67 189.889C188.657 189.868 188.651 189.843 188.651 189.819C188.651 189.794 188.657 189.77 188.67 189.749C188.67 189.749 188.664 189.744 188.67 189.738Z" fill="#407BFF"/>
<path d="M196.045 186.897L191.755 188.8L189.846 184.831L187.348 179.639L187.051 179.036L191.341 177.132L191.671 177.813L194.09 182.843L196.045 186.897Z" fill="#FFB573"/>
<path opacity="0.2" d="M194.09 182.843L189.846 184.83L187.348 179.638L191.671 177.812L194.09 182.843Z" fill="black"/>
<path d="M179.799 91.6279C179.799 91.6279 166.096 125.617 169.809 141.585C173.169 156.039 188.009 183.412 188.009 183.412L193.76 180.543C193.76 180.543 184.582 147.497 183.59 140.317C181.653 126.36 194.102 106.635 194.102 91.6279H179.799Z" fill="#263238"/>
<path opacity="0.1" d="M179.799 91.6279C179.799 91.6279 166.096 125.617 169.809 141.585C173.169 156.039 188.009 183.412 188.009 183.412L193.76 180.543C193.76 180.543 184.582 147.497 183.59 140.317C181.653 126.36 194.102 106.635 194.102 91.6279H179.799Z" fill="white"/>
<path d="M190.994 188.203L195.25 185.116C195.321 185.06 195.411 185.032 195.502 185.038C195.593 185.044 195.679 185.084 195.742 185.149L198.682 188.158C198.754 188.237 198.808 188.33 198.841 188.43C198.874 188.531 198.885 188.637 198.874 188.743C198.863 188.848 198.829 188.95 198.776 189.042C198.723 189.133 198.651 189.213 198.565 189.275C197.058 190.325 196.28 190.76 194.41 192.117C193.256 192.954 190.96 194.802 189.37 195.958C187.779 197.113 186.57 195.606 187.13 194.986C189.638 192.195 190.165 190.464 190.557 188.895C190.618 188.621 190.772 188.376 190.994 188.203Z" fill="#263238"/>
<path d="M187.639 184.624L195.048 181.246L194.102 178.237L186.166 181.843L187.639 184.624Z" fill="#407BFF"/>
<path d="M183.434 63.8471C182.823 62.2615 177.47 60.4973 174.782 59.939L173.6 68.7154C173.6 68.7154 177.99 75.0019 179.911 74.4827C182.185 73.8685 184.755 67.2471 183.434 63.8471Z" fill="#407BFF"/>
<path opacity="0.4" d="M183.434 63.8471C182.823 62.2615 177.47 60.4973 174.782 59.939L173.6 68.7154C173.6 68.7154 177.99 75.0019 179.911 74.4827C182.185 73.8685 184.755 67.2471 183.434 63.8471Z" fill="black"/>
<path d="M177.559 63.4065C177.559 63.4065 175.319 64.1881 179.799 91.6285H198.839C198.52 83.9016 198.509 79.1338 202.199 63.2669C199.531 62.7181 196.827 62.3636 194.107 62.2061C191.229 61.9993 188.339 61.9993 185.461 62.2061C181.77 62.5299 177.559 63.4065 177.559 63.4065Z" fill="#407BFF"/>
<path opacity="0.4" d="M177.559 63.4065C177.559 63.4065 175.319 64.1881 179.799 91.6285H198.839C198.52 83.9016 198.509 79.1338 202.199 63.2669C199.531 62.7181 196.827 62.3636 194.107 62.2061C191.229 61.9993 188.339 61.9993 185.461 62.2061C181.77 62.5299 177.559 63.4065 177.559 63.4065Z" fill="black"/>
<path d="M199.136 90.5163L199.993 92.1912C200.06 92.3252 199.903 92.4592 199.685 92.4592H179.704C179.53 92.4592 179.39 92.3754 179.379 92.2638L179.206 90.5889C179.206 90.4716 179.346 90.3711 179.53 90.3711H198.8C198.864 90.361 198.93 90.3693 198.989 90.395C199.049 90.4207 199.1 90.4628 199.136 90.5163Z" fill="#407BFF"/>
<path opacity="0.3" d="M199.136 90.5163L199.993 92.1912C200.06 92.3252 199.903 92.4592 199.685 92.4592H179.704C179.53 92.4592 179.39 92.3754 179.379 92.2638L179.206 90.5889C179.206 90.4716 179.346 90.3711 179.53 90.3711H198.8C198.864 90.361 198.93 90.3693 198.989 90.395C199.049 90.4207 199.1 90.4628 199.136 90.5163Z" fill="white"/>
<path d="M196.56 92.6774H197.075C197.182 92.6774 197.26 92.6216 197.249 92.5602L197.008 90.327C197.008 90.26 196.913 90.2097 196.812 90.2097H196.291C196.19 90.2097 196.112 90.26 196.118 90.327L196.358 92.5602C196.353 92.6104 196.442 92.6774 196.56 92.6774Z" fill="#263238"/>
<path d="M184.022 92.6774H184.537C184.638 92.6774 184.716 92.6216 184.711 92.5602L184.47 90.327C184.47 90.26 184.375 90.2097 184.268 90.2097H183.753C183.646 90.2097 183.574 90.26 183.579 90.327L183.82 92.5602C183.826 92.6104 183.915 92.6774 184.022 92.6774Z" fill="#263238"/>
</svg>
